<svg width="480" height="28" viewBox="0 0 480 28" fill="none" xmlns="http://www.w3.org/2000/svg">
<path d="M19.888 5.176C19.608 5.904 19.3187 6.79067 19.02 7.836C18.7213 8.86267 18.4133 10.1227 18.096 11.616H17.48C17.6293 10.664 17.6947 9.83333 17.676 9.124C17.676 8.41467 17.5267 7.79867 17.228 7.276C16.8733 6.62267 16.416 6.156 15.856 5.876C15.296 5.596 14.652 5.456 13.924 5.456C12.9907 5.456 12.0947 5.708 11.236 6.212C10.3773 6.716 9.584 7.416 8.856 8.312C8.128 9.18933 7.484 10.2067 6.924 11.364C6.38267 12.5027 5.95333 13.7253 5.636 15.032C5.33733 16.3387 5.188 17.664 5.188 19.008C5.188 20.912 5.524 22.312 6.196 23.208C6.88667 24.104 7.81067 24.552 8.968 24.552C9.65867 24.552 10.3867 24.3933 11.152 24.076C11.9173 23.7587 12.5893 23.3013 13.168 22.704C13.672 22.1813 14.1013 21.584 14.456 20.912C14.8293 20.24 15.24 19.3627 15.688 18.28H16.304C15.8373 19.9787 15.4733 21.3507 15.212 22.396C14.9693 23.4227 14.7827 24.2907 14.652 25H14.036C14.092 24.608 14.12 24.2907 14.12 24.048C14.12 23.656 14.0453 23.4227 13.896 23.348C13.7467 23.2733 13.5133 23.348 13.196 23.572C12.4307 24.0947 11.6093 24.5333 10.732 24.888C9.87333 25.224 8.86533 25.392 7.708 25.392C5.16933 25.392 3.284 24.7947 2.052 23.6C0.82 22.3867 0.204 20.6693 0.204 18.448C0.204 17.1413 0.409333 15.8347 0.82 14.528C1.24933 13.2213 1.856 11.9893 2.64 10.832C3.44267 9.656 4.39467 8.62 5.496 7.724C6.616 6.80933 7.85733 6.09067 9.22 5.568C10.5827 5.04533 12.0387 4.784 13.588 4.784C14.7453 4.784 15.6227 4.97067 16.22 5.344C16.8173 5.69867 17.3307 6.11867 17.76 6.604C18.0027 6.884 18.2453 6.912 18.488 6.688C18.7307 6.464 19.0013 5.96 19.3 5.176H19.888ZM26.6741 15.312L26.8141 14.752H32.3581L32.2181 15.312H26.6741ZM29.6141 14.752C30.3234 14.752 30.9207 14.5747 31.4061 14.22C31.8914 13.8653 32.3021 13.436 32.6381 12.932C32.9927 12.4093 33.2634 11.896 33.4501 11.392H34.0941C33.7954 12.2507 33.5807 12.9413 33.4501 13.464C33.3194 13.968 33.1887 14.4907 33.0581 15.032C32.9647 15.368 32.8807 15.6947 32.8061 16.012C32.7314 16.3293 32.6474 16.6933 32.5541 17.104C32.4794 17.496 32.3767 18.0187 32.2461 18.672H31.6301C31.6674 18.168 31.6394 17.664 31.5461 17.16C31.4714 16.6373 31.2661 16.1987 30.9301 15.844C30.6127 15.4893 30.0714 15.312 29.3061 15.312L29.6141 14.752ZM37.1181 10.216C37.1927 9.11467 37.1461 8.24667 36.9781 7.612C36.8101 6.95867 36.4834 6.50133 35.9981 6.24C35.5314 5.96 34.8781 5.82 34.0381 5.82H33.1701C32.5541 5.82 32.0687 5.876 31.7141 5.988C31.3781 6.08133 31.1074 6.296 30.9021 6.632C30.7154 6.94933 30.5287 7.45333 30.3421 8.144L26.6461 22.032C26.3661 23.0587 26.3287 23.7027 26.5341 23.964C26.7581 24.2253 27.3274 24.356 28.2421 24.356H29.2781C30.2861 24.356 31.1354 24.1973 31.8261 23.88C32.5167 23.5627 33.1327 23.0493 33.6741 22.34C34.2341 21.612 34.7847 20.632 35.3261 19.4H35.9701C35.8767 19.6427 35.7741 19.9413 35.6621 20.296C35.5501 20.6507 35.4474 21.024 35.3541 21.416C35.2607 21.7707 35.1394 22.284 34.9901 22.956C34.8407 23.6093 34.7194 24.2907 34.6261 25C33.6741 24.9627 32.6101 24.944 31.4341 24.944C30.2581 24.9253 29.2034 24.916 28.2701 24.916C27.6354 24.916 26.7954 24.916 25.7501 24.916C24.7047 24.916 23.6034 24.9253 22.4461 24.944C21.2887 24.944 20.1967 24.9627 19.1701 25L19.3101 24.44C19.9447 24.4027 20.4394 24.328 20.7941 24.216C21.1487 24.104 21.4194 23.88 21.6061 23.544C21.8114 23.208 22.0074 22.704 22.1941 22.032L25.8901 8.144C26.1514 7.11733 26.1701 6.47333 25.9461 6.212C25.7407 5.932 25.1714 5.77333 24.2381 5.736L24.3781 5.176C25.4047 5.19467 26.4967 5.21333 27.6541 5.232C28.8114 5.25067 29.9127 5.26 30.9581 5.26C32.0034 5.26 32.8434 5.26 33.4781 5.26C34.3181 5.26 35.2607 5.26 36.3061 5.26C37.3701 5.24133 38.3221 5.21333 39.1621 5.176C38.9194 5.82933 38.7141 6.41733 38.5461 6.94C38.3781 7.46267 38.2287 7.976 38.0981 8.48C38.0234 8.816 37.9487 9.13333 37.8741 9.432C37.8181 9.73067 37.7714 9.992 37.7341 10.216H37.1181ZM47.5894 15.06C48.1307 15.0973 48.5787 15.1347 48.9334 15.172C49.3067 15.1907 49.6241 15.2187 49.8854 15.256C50.1654 15.2747 50.4361 15.2933 50.6974 15.312C51.7614 15.4053 52.7041 15.564 53.5254 15.788C54.3654 16.012 55.0001 16.3853 55.4294 16.908C55.8587 17.4307 56.0081 18.1867 55.8774 19.176L55.4854 22.06C55.4294 22.6573 55.4667 23.1333 55.5974 23.488C55.7281 23.8427 55.9801 24.02 56.3534 24.02C56.7267 24.02 57.0441 23.852 57.3054 23.516C57.5854 23.1613 57.8374 22.6573 58.0614 22.004L58.2014 21.612H58.8454L58.7334 21.976C58.3974 23.1333 57.8841 23.992 57.1934 24.552C56.5214 25.112 55.6067 25.392 54.4494 25.392C53.1614 25.392 52.2374 25.084 51.6774 24.468C51.1361 23.852 50.9307 23.0773 51.0614 22.144L51.4814 18.952C51.5747 18.1867 51.5467 17.552 51.3974 17.048C51.2481 16.5253 50.8747 16.1333 50.2774 15.872C49.6801 15.6107 48.7654 15.48 47.5334 15.48L47.5894 15.06ZM47.1414 15.48L47.2814 14.976H48.2054C49.4374 14.976 50.5201 14.7333 51.4534 14.248C52.3867 13.7627 53.1241 13.0533 53.6654 12.12C54.2067 11.168 54.4774 10.02 54.4774 8.676C54.4774 7.668 54.2627 6.93067 53.8334 6.464C53.4041 5.97867 52.7507 5.736 51.8734 5.736C51.3321 5.736 50.9214 5.86667 50.6414 6.128C50.3801 6.37067 50.1467 6.856 49.9414 7.584L46.1334 22.032C45.9841 22.592 45.8907 23.0493 45.8534 23.404C45.8347 23.74 45.9654 23.992 46.2454 24.16C46.5254 24.3093 47.0294 24.4027 47.7574 24.44L47.6454 25C47.0854 24.9627 46.4227 24.944 45.6574 24.944C44.9107 24.9253 44.1174 24.916 43.2774 24.916C42.3814 24.916 41.5134 24.9253 40.6734 24.944C39.8334 24.944 39.1707 24.9627 38.6854 25L38.7974 24.44C39.4321 24.4027 39.9267 24.328 40.2814 24.216C40.6361 24.104 40.9161 23.88 41.1214 23.544C41.3267 23.208 41.5134 22.704 41.6814 22.032L45.3494 8.144C45.5174 7.56533 45.6014 7.108 45.6014 6.772C45.6014 6.436 45.4614 6.184 45.1814 6.016C44.9201 5.848 44.4347 5.75467 43.7254 5.736L43.8654 5.176C44.2014 5.19467 44.6121 5.21333 45.0974 5.232C45.5827 5.232 46.0867 5.24133 46.6094 5.26C47.1507 5.26 47.6454 5.26 48.0934 5.26C48.9521 5.26 49.7081 5.25067 50.3614 5.232C51.0334 5.21333 51.6774 5.204 52.2934 5.204C54.5707 5.204 56.2507 5.52133 57.3334 6.156C58.4347 6.79067 58.9854 7.77067 58.9854 9.096C58.9854 10.384 58.5281 11.504 57.6134 12.456C56.7174 13.3893 55.4667 14.1267 53.8614 14.668C52.2561 15.1907 50.3894 15.452 48.2614 15.452L47.1414 15.48ZM83.5957 0.975999C84.2677 0.975999 84.7903 1.18133 85.1637 1.592C85.5557 1.984 85.7517 2.432 85.7517 2.936C85.7517 3.53333 85.5743 4.056 85.2197 4.504C84.8837 4.952 84.417 5.316 83.8197 5.596C83.2597 5.85733 82.5877 6.06267 81.8037 6.212C81.0197 6.34267 80.133 6.408 79.1437 6.408C78.2477 6.408 77.249 6.352 76.1477 6.24C75.0463 6.128 73.945 6.016 72.8437 5.904C71.761 5.792 70.753 5.736 69.8197 5.736C69.185 5.736 68.5783 5.77333 67.9997 5.848C67.421 5.904 66.973 6.02533 66.6557 6.212C67.141 6.34267 67.5423 6.61333 67.8597 7.024C68.177 7.43467 68.3357 7.92 68.3357 8.48C68.3357 9.11467 68.1303 9.66533 67.7197 10.132C67.3277 10.5987 66.805 10.832 66.1517 10.832C65.4983 10.832 64.9943 10.6173 64.6397 10.188C64.3037 9.74 64.1357 9.21733 64.1357 8.62C64.1357 8.172 64.257 7.696 64.4997 7.192C64.761 6.66933 65.2463 6.24 65.9557 5.904C66.4037 5.68 66.8703 5.52133 67.3557 5.428C67.841 5.33467 68.2983 5.27867 68.7277 5.26C69.157 5.24133 69.4837 5.232 69.7077 5.232C70.865 5.232 71.9943 5.288 73.0957 5.4C74.197 5.49333 75.2703 5.596 76.3157 5.708C77.3797 5.80133 78.4063 5.848 79.3957 5.848C80.1237 5.848 80.7303 5.81067 81.2157 5.736C81.7197 5.66133 82.177 5.54933 82.5877 5.4L82.5317 5.624C82.2517 5.4 81.9903 5.08267 81.7477 4.672C81.505 4.26133 81.3837 3.79467 81.3837 3.272C81.3837 2.6 81.5797 2.04933 81.9717 1.62C82.3823 1.19067 82.9237 0.975999 83.5957 0.975999ZM73.2357 5.708C73.2357 5.708 73.3757 5.72667 73.6557 5.764C73.9543 5.78267 74.3183 5.81067 74.7477 5.848C75.177 5.88533 75.6063 5.92267 76.0357 5.96C76.465 5.99733 76.829 6.03467 77.1277 6.072C77.4263 6.09067 77.5757 6.1 77.5757 6.1L73.4037 21.752C73.1423 22.76 73.1423 23.4507 73.4037 23.824C73.6837 24.1787 74.3837 24.384 75.5037 24.44L75.3917 25C74.813 24.9627 74.057 24.944 73.1237 24.944C72.1903 24.9253 71.2197 24.916 70.2117 24.916C69.241 24.916 68.3077 24.9253 67.4117 24.944C66.5343 24.944 65.825 24.9627 65.2837 25L65.3957 24.44C66.1797 24.4027 66.7957 24.3093 67.2437 24.16C67.7103 23.992 68.065 23.7213 68.3077 23.348C68.569 22.956 68.7837 22.424 68.9517 21.752L73.2357 5.708ZM89.0182 22.032C88.7569 23.0587 88.7289 23.712 88.9342 23.992C89.1396 24.2533 89.7182 24.4027 90.6702 24.44L90.5582 25C90.0169 24.9627 89.3262 24.944 88.4862 24.944C87.6649 24.9253 86.8342 24.916 85.9942 24.916C85.0982 24.916 84.2582 24.9253 83.4742 24.944C82.7089 24.944 82.0836 24.9627 81.5982 25L81.7382 24.44C82.3542 24.4027 82.8302 24.328 83.1662 24.216C83.5209 24.104 83.8009 23.88 84.0062 23.544C84.2116 23.208 84.3982 22.704 84.5662 22.032L88.2622 8.144C88.5236 7.11733 88.5422 6.47333 88.3182 6.212C88.1129 5.932 87.5436 5.77333 86.6102 5.736L86.7502 5.176C87.1982 5.19467 87.8142 5.21333 88.5982 5.232C89.3822 5.25067 90.2316 5.26 91.1462 5.26C91.9862 5.26 92.8076 5.25067 93.6102 5.232C94.4316 5.21333 95.1409 5.19467 95.7382 5.176L95.5982 5.736C94.9636 5.75467 94.4689 5.82933 94.1142 5.96C93.7596 6.072 93.4796 6.296 93.2742 6.632C93.0876 6.94933 92.9009 7.45333 92.7142 8.144L89.0182 22.032ZM102.056 15.424L102.196 14.864H108.02L107.908 15.424H102.056ZM112.08 11.056C112.248 9.73067 112.248 8.69467 112.08 7.948C111.912 7.18267 111.567 6.64133 111.044 6.324C110.522 5.988 109.803 5.82 108.888 5.82H108.244C107.666 5.82 107.218 5.876 106.9 5.988C106.583 6.08133 106.322 6.296 106.116 6.632C105.93 6.94933 105.752 7.45333 105.584 8.144L101.888 22.032C101.702 22.704 101.636 23.208 101.692 23.544C101.748 23.88 101.963 24.104 102.336 24.216C102.728 24.328 103.307 24.4027 104.072 24.44L103.96 25C103.382 24.9627 102.635 24.944 101.72 24.944C100.824 24.9253 99.9097 24.916 98.9764 24.916C98.0431 24.916 97.1751 24.9253 96.3724 24.944C95.5697 24.944 94.9164 24.9627 94.4124 25L94.5524 24.44C95.1871 24.4027 95.6817 24.328 96.0364 24.216C96.3911 24.104 96.6617 23.88 96.8484 23.544C97.0537 23.208 97.2497 22.704 97.4364 22.032L101.132 8.144C101.394 7.11733 101.412 6.47333 101.188 6.212C100.983 5.932 100.414 5.77333 99.4804 5.736L99.6204 5.176C100.647 5.19467 101.739 5.21333 102.896 5.232C104.054 5.25067 105.155 5.26 106.2 5.26C107.246 5.26 108.086 5.26 108.72 5.26C109.56 5.26 110.503 5.26 111.548 5.26C112.612 5.24133 113.564 5.21333 114.404 5.176C114.162 5.848 113.956 6.45467 113.788 6.996C113.62 7.53733 113.462 8.06933 113.312 8.592C113.182 9.07733 113.06 9.52533 112.948 9.936C112.855 10.3467 112.78 10.72 112.724 11.056H112.08ZM105.08 14.864C105.752 14.864 106.322 14.7053 106.788 14.388C107.274 14.052 107.684 13.632 108.02 13.128C108.375 12.6053 108.674 12.064 108.916 11.504H109.532C109.252 12.3627 109.047 13.0533 108.916 13.576C108.786 14.08 108.646 14.6027 108.496 15.144C108.384 15.6853 108.254 16.264 108.104 16.88C107.974 17.496 107.815 18.2987 107.628 19.288H107.012C107.05 18.5413 107.012 17.8787 106.9 17.3C106.807 16.7027 106.592 16.2453 106.256 15.928C105.939 15.592 105.444 15.424 104.772 15.424L105.08 14.864ZM120.309 22.032C120.048 23.0587 120.02 23.712 120.225 23.992C120.431 24.2533 121.009 24.4027 121.961 24.44L121.849 25C121.308 24.9627 120.617 24.944 119.777 24.944C118.956 24.9253 118.125 24.916 117.285 24.916C116.389 24.916 115.549 24.9253 114.765 24.944C114 24.944 113.375 24.9627 112.889 25L113.029 24.44C113.645 24.4027 114.121 24.328 114.457 24.216C114.812 24.104 115.092 23.88 115.297 23.544C115.503 23.208 115.689 22.704 115.857 22.032L119.553 8.144C119.815 7.11733 119.833 6.47333 119.609 6.212C119.404 5.932 118.835 5.77333 117.901 5.736L118.041 5.176C118.489 5.19467 119.105 5.21333 119.889 5.232C120.673 5.25067 121.523 5.26 122.437 5.26C123.277 5.26 124.099 5.25067 124.901 5.232C125.723 5.21333 126.432 5.19467 127.029 5.176L126.889 5.736C126.255 5.75467 125.76 5.82933 125.405 5.96C125.051 6.072 124.771 6.296 124.565 6.632C124.379 6.94933 124.192 7.45333 124.005 8.144L120.309 22.032ZM147.796 5.176C147.516 5.904 147.226 6.79067 146.928 7.836C146.629 8.86267 146.321 10.1227 146.004 11.616H145.388C145.537 10.664 145.602 9.83333 145.584 9.124C145.584 8.41467 145.434 7.79867 145.136 7.276C144.781 6.62267 144.324 6.156 143.764 5.876C143.204 5.596 142.56 5.456 141.832 5.456C140.898 5.456 140.002 5.708 139.144 6.212C138.285 6.716 137.492 7.416 136.764 8.312C136.036 9.18933 135.392 10.2067 134.832 11.364C134.29 12.5027 133.861 13.7253 133.544 15.032C133.245 16.3387 133.096 17.664 133.096 19.008C133.096 20.912 133.432 22.312 134.104 23.208C134.794 24.104 135.718 24.552 136.876 24.552C137.566 24.552 138.294 24.3933 139.06 24.076C139.825 23.7587 140.497 23.3013 141.076 22.704C141.58 22.1813 142.009 21.584 142.364 20.912C142.737 20.24 143.148 19.3627 143.596 18.28H144.212C143.745 19.9787 143.381 21.3507 143.12 22.396C142.877 23.4227 142.69 24.2907 142.56 25H141.944C142 24.608 142.028 24.2907 142.028 24.048C142.028 23.656 141.953 23.4227 141.804 23.348C141.654 23.2733 141.421 23.348 141.104 23.572C140.338 24.0947 139.517 24.5333 138.64 24.888C137.781 25.224 136.773 25.392 135.616 25.392C133.077 25.392 131.192 24.7947 129.96 23.6C128.728 22.3867 128.112 20.6693 128.112 18.448C128.112 17.1413 128.317 15.8347 128.728 14.528C129.157 13.2213 129.764 11.9893 130.548 10.832C131.35 9.656 132.302 8.62 133.404 7.724C134.524 6.80933 135.765 6.09067 137.128 5.568C138.49 5.04533 139.946 4.784 141.496 4.784C142.653 4.784 143.53 4.97067 144.128 5.344C144.725 5.69867 145.238 6.11867 145.668 6.604C145.91 6.884 146.153 6.912 146.396 6.688C146.638 6.464 146.909 5.96 147.208 5.176H147.796ZM149.962 20.996C149.383 21.7987 149.084 22.452 149.066 22.956C149.047 23.4413 149.252 23.8053 149.682 24.048C150.111 24.272 150.69 24.4027 151.418 24.44L151.278 25C150.494 24.9627 149.812 24.944 149.234 24.944C148.674 24.9253 148.142 24.916 147.638 24.916C147.208 24.916 146.854 24.9253 146.574 24.944C146.294 24.944 146.004 24.9627 145.706 25L145.818 24.44C146.284 24.3093 146.751 24.0387 147.218 23.628C147.684 23.1987 148.272 22.48 148.982 21.472L160.658 5.036C160.9 5.05467 161.143 5.064 161.386 5.064C161.647 5.064 161.88 5.05467 162.086 5.036L163.206 22.648C163.262 23.32 163.43 23.7867 163.71 24.048C164.008 24.2907 164.298 24.4213 164.578 24.44L164.466 25C163.999 24.9627 163.374 24.944 162.59 24.944C161.824 24.9253 161.096 24.916 160.406 24.916C159.566 24.916 158.772 24.9253 158.026 24.944C157.279 24.944 156.672 24.9627 156.206 25L156.318 24.44C157.214 24.4027 157.848 24.244 158.222 23.964C158.614 23.6653 158.782 23.04 158.726 22.088L158.054 9.208L159.006 8.2L149.962 20.996ZM152.566 16.936H160.742L160.518 17.496H152.062L152.566 16.936ZM187.723 0.975999C188.395 0.975999 188.918 1.18133 189.291 1.592C189.683 1.984 189.879 2.432 189.879 2.936C189.879 3.53333 189.702 4.056 189.347 4.504C189.011 4.952 188.544 5.316 187.947 5.596C187.387 5.85733 186.715 6.06267 185.931 6.212C185.147 6.34267 184.26 6.408 183.271 6.408C182.375 6.408 181.376 6.352 180.275 6.24C179.174 6.128 178.072 6.016 176.971 5.904C175.888 5.792 174.88 5.736 173.947 5.736C173.312 5.736 172.706 5.77333 172.127 5.848C171.548 5.904 171.1 6.02533 170.783 6.212C171.268 6.34267 171.67 6.61333 171.987 7.024C172.304 7.43467 172.463 7.92 172.463 8.48C172.463 9.11467 172.258 9.66533 171.847 10.132C171.455 10.5987 170.932 10.832 170.279 10.832C169.626 10.832 169.122 10.6173 168.767 10.188C168.431 9.74 168.263 9.21733 168.263 8.62C168.263 8.172 168.384 7.696 168.627 7.192C168.888 6.66933 169.374 6.24 170.083 5.904C170.531 5.68 170.998 5.52133 171.483 5.428C171.968 5.33467 172.426 5.27867 172.855 5.26C173.284 5.24133 173.611 5.232 173.835 5.232C174.992 5.232 176.122 5.288 177.223 5.4C178.324 5.49333 179.398 5.596 180.443 5.708C181.507 5.80133 182.534 5.848 183.523 5.848C184.251 5.848 184.858 5.81067 185.343 5.736C185.847 5.66133 186.304 5.54933 186.715 5.4L186.659 5.624C186.379 5.4 186.118 5.08267 185.875 4.672C185.632 4.26133 185.511 3.79467 185.511 3.272C185.511 2.6 185.707 2.04933 186.099 1.62C186.51 1.19067 187.051 0.975999 187.723 0.975999ZM177.363 5.708C177.363 5.708 177.503 5.72667 177.783 5.764C178.082 5.78267 178.446 5.81067 178.875 5.848C179.304 5.88533 179.734 5.92267 180.163 5.96C180.592 5.99733 180.956 6.03467 181.255 6.072C181.554 6.09067 181.703 6.1 181.703 6.1L177.531 21.752C177.27 22.76 177.27 23.4507 177.531 23.824C177.811 24.1787 178.511 24.384 179.631 24.44L179.519 25C178.94 24.9627 178.184 24.944 177.251 24.944C176.318 24.9253 175.347 24.916 174.339 24.916C173.368 24.916 172.435 24.9253 171.539 24.944C170.662 24.944 169.952 24.9627 169.411 25L169.523 24.44C170.307 24.4027 170.923 24.3093 171.371 24.16C171.838 23.992 172.192 23.7213 172.435 23.348C172.696 22.956 172.911 22.424 173.079 21.752L177.363 5.708ZM193.173 15.312L193.313 14.752H198.857L198.717 15.312H193.173ZM196.113 14.752C196.823 14.752 197.42 14.5747 197.905 14.22C198.391 13.8653 198.801 13.436 199.137 12.932C199.492 12.4093 199.763 11.896 199.949 11.392H200.593C200.295 12.2507 200.08 12.9413 199.949 13.464C199.819 13.968 199.688 14.4907 199.557 15.032C199.464 15.368 199.38 15.6947 199.305 16.012C199.231 16.3293 199.147 16.6933 199.053 17.104C198.979 17.496 198.876 18.0187 198.745 18.672H198.129C198.167 18.168 198.139 17.664 198.045 17.16C197.971 16.6373 197.765 16.1987 197.429 15.844C197.112 15.4893 196.571 15.312 195.805 15.312L196.113 14.752ZM203.617 10.216C203.692 9.11467 203.645 8.24667 203.477 7.612C203.309 6.95867 202.983 6.50133 202.497 6.24C202.031 5.96 201.377 5.82 200.537 5.82H199.669C199.053 5.82 198.568 5.876 198.213 5.988C197.877 6.08133 197.607 6.296 197.401 6.632C197.215 6.94933 197.028 7.45333 196.841 8.144L193.145 22.032C192.865 23.0587 192.828 23.7027 193.033 23.964C193.257 24.2253 193.827 24.356 194.741 24.356H195.777C196.785 24.356 197.635 24.1973 198.325 23.88C199.016 23.5627 199.632 23.0493 200.173 22.34C200.733 21.612 201.284 20.632 201.825 19.4H202.469C202.376 19.6427 202.273 19.9413 202.161 20.296C202.049 20.6507 201.947 21.024 201.853 21.416C201.76 21.7707 201.639 22.284 201.489 22.956C201.34 23.6093 201.219 24.2907 201.125 25C200.173 24.9627 199.109 24.944 197.933 24.944C196.757 24.9253 195.703 24.916 194.769 24.916C194.135 24.916 193.295 24.916 192.249 24.916C191.204 24.916 190.103 24.9253 188.945 24.944C187.788 24.944 186.696 24.9627 185.669 25L185.809 24.44C186.444 24.4027 186.939 24.328 187.293 24.216C187.648 24.104 187.919 23.88 188.105 23.544C188.311 23.208 188.507 22.704 188.693 22.032L192.389 8.144C192.651 7.11733 192.669 6.47333 192.445 6.212C192.24 5.932 191.671 5.77333 190.737 5.736L190.877 5.176C191.904 5.19467 192.996 5.21333 194.153 5.232C195.311 5.25067 196.412 5.26 197.457 5.26C198.503 5.26 199.343 5.26 199.977 5.26C200.817 5.26 201.76 5.26 202.805 5.26C203.869 5.24133 204.821 5.21333 205.661 5.176C205.419 5.82933 205.213 6.41733 205.045 6.94C204.877 7.46267 204.728 7.976 204.597 8.48C204.523 8.816 204.448 9.13333 204.373 9.432C204.317 9.73067 204.271 9.992 204.233 10.216H203.617ZM229.066 5.288C228.076 5.288 227.124 5.68 226.21 6.464C225.314 7.248 224.502 8.30267 223.774 9.628C223.064 10.9533 222.495 12.4373 222.066 14.08C221.655 15.704 221.45 17.356 221.45 19.036C221.45 20.8653 221.73 22.3027 222.29 23.348C222.868 24.3747 223.596 24.888 224.474 24.888C225.463 24.888 226.406 24.496 227.302 23.712C228.216 22.928 229.028 21.8733 229.738 20.548C230.466 19.2227 231.035 17.748 231.446 16.124C231.875 14.4813 232.09 12.82 232.09 11.14C232.09 9.31067 231.8 7.88267 231.222 6.856C230.662 5.81067 229.943 5.288 229.066 5.288ZM216.634 18.672C216.634 17.44 216.83 16.1707 217.222 14.864C217.614 13.5573 218.174 12.3067 218.902 11.112C219.63 9.91733 220.507 8.844 221.534 7.892C222.579 6.94 223.755 6.184 225.062 5.624C226.368 5.064 227.787 4.784 229.318 4.784C231.688 4.784 233.546 5.372 234.89 6.548C236.252 7.70533 236.934 9.36667 236.934 11.532C236.934 12.764 236.738 14.0333 236.346 15.34C235.954 16.628 235.384 17.8693 234.638 19.064C233.91 20.2587 233.023 21.332 231.978 22.284C230.932 23.236 229.756 23.992 228.45 24.552C227.162 25.112 225.752 25.392 224.222 25.392C221.851 25.392 219.994 24.8133 218.65 23.656C217.306 22.48 216.634 20.8187 216.634 18.672ZM245.623 15.424L245.763 14.864H251.587L251.475 15.424H245.623ZM255.647 11.056C255.815 9.73067 255.815 8.69467 255.647 7.948C255.479 7.18267 255.134 6.64133 254.611 6.324C254.088 5.988 253.37 5.82 252.455 5.82H251.811C251.232 5.82 250.784 5.876 250.467 5.988C250.15 6.08133 249.888 6.296 249.683 6.632C249.496 6.94933 249.319 7.45333 249.151 8.144L245.455 22.032C245.268 22.704 245.203 23.208 245.259 23.544C245.315 23.88 245.53 24.104 245.903 24.216C246.295 24.328 246.874 24.4027 247.639 24.44L247.527 25C246.948 24.9627 246.202 24.944 245.287 24.944C244.391 24.9253 243.476 24.916 242.543 24.916C241.61 24.916 240.742 24.9253 239.939 24.944C239.136 24.944 238.483 24.9627 237.979 25L238.119 24.44C238.754 24.4027 239.248 24.328 239.603 24.216C239.958 24.104 240.228 23.88 240.415 23.544C240.62 23.208 240.816 22.704 241.003 22.032L244.699 8.144C244.96 7.11733 244.979 6.47333 244.755 6.212C244.55 5.932 243.98 5.77333 243.047 5.736L243.187 5.176C244.214 5.19467 245.306 5.21333 246.463 5.232C247.62 5.25067 248.722 5.26 249.767 5.26C250.812 5.26 251.652 5.26 252.287 5.26C253.127 5.26 254.07 5.26 255.115 5.26C256.179 5.24133 257.131 5.21333 257.971 5.176C257.728 5.848 257.523 6.45467 257.355 6.996C257.187 7.53733 257.028 8.06933 256.879 8.592C256.748 9.07733 256.627 9.52533 256.515 9.936C256.422 10.3467 256.347 10.72 256.291 11.056H255.647ZM248.647 14.864C249.319 14.864 249.888 14.7053 250.355 14.388C250.84 14.052 251.251 13.632 251.587 13.128C251.942 12.6053 252.24 12.064 252.483 11.504H253.099C252.819 12.3627 252.614 13.0533 252.483 13.576C252.352 14.08 252.212 14.6027 252.063 15.144C251.951 15.6853 251.82 16.264 251.671 16.88C251.54 17.496 251.382 18.2987 251.195 19.288H250.579C250.616 18.5413 250.579 17.8787 250.467 17.3C250.374 16.7027 250.159 16.2453 249.823 15.928C249.506 15.592 249.011 15.424 248.339 15.424L248.647 14.864ZM287.343 5.176C287.063 5.904 286.773 6.79067 286.475 7.836C286.176 8.86267 285.868 10.1227 285.551 11.616H284.935C285.084 10.664 285.149 9.83333 285.131 9.124C285.131 8.41467 284.981 7.79867 284.683 7.276C284.328 6.62267 283.871 6.156 283.311 5.876C282.751 5.596 282.107 5.456 281.379 5.456C280.445 5.456 279.549 5.708 278.691 6.212C277.832 6.716 277.039 7.416 276.311 8.312C275.583 9.18933 274.939 10.2067 274.379 11.364C273.837 12.5027 273.408 13.7253 273.091 15.032C272.792 16.3387 272.643 17.664 272.643 19.008C272.643 20.912 272.979 22.312 273.651 23.208C274.341 24.104 275.265 24.552 276.423 24.552C277.113 24.552 277.841 24.3933 278.607 24.076C279.372 23.7587 280.044 23.3013 280.623 22.704C281.127 22.1813 281.556 21.584 281.911 20.912C282.284 20.24 282.695 19.3627 283.143 18.28H283.759C283.292 19.9787 282.928 21.3507 282.667 22.396C282.424 23.4227 282.237 24.2907 282.107 25H281.491C281.547 24.608 281.575 24.2907 281.575 24.048C281.575 23.656 281.5 23.4227 281.351 23.348C281.201 23.2733 280.968 23.348 280.651 23.572C279.885 24.0947 279.064 24.5333 278.187 24.888C277.328 25.224 276.32 25.392 275.163 25.392C272.624 25.392 270.739 24.7947 269.507 23.6C268.275 22.3867 267.659 20.6693 267.659 18.448C267.659 17.1413 267.864 15.8347 268.275 14.528C268.704 13.2213 269.311 11.9893 270.095 10.832C270.897 9.656 271.849 8.62 272.951 7.724C274.071 6.80933 275.312 6.09067 276.675 5.568C278.037 5.04533 279.493 4.784 281.043 4.784C282.2 4.784 283.077 4.97067 283.675 5.344C284.272 5.69867 284.785 6.11867 285.215 6.604C285.457 6.884 285.7 6.912 285.943 6.688C286.185 6.464 286.456 5.96 286.755 5.176H287.343ZM301.437 5.288C300.447 5.288 299.495 5.68 298.581 6.464C297.685 7.248 296.873 8.30267 296.145 9.628C295.435 10.9533 294.866 12.4373 294.437 14.08C294.026 15.704 293.821 17.356 293.821 19.036C293.821 20.8653 294.101 22.3027 294.661 23.348C295.239 24.3747 295.967 24.888 296.845 24.888C297.834 24.888 298.777 24.496 299.673 23.712C300.587 22.928 301.399 21.8733 302.109 20.548C302.837 19.2227 303.406 17.748 303.817 16.124C304.246 14.4813 304.461 12.82 304.461 11.14C304.461 9.31067 304.171 7.88267 303.593 6.856C303.033 5.81067 302.314 5.288 301.437 5.288ZM289.005 18.672C289.005 17.44 289.201 16.1707 289.593 14.864C289.985 13.5573 290.545 12.3067 291.273 11.112C292.001 9.91733 292.878 8.844 293.905 7.892C294.95 6.94 296.126 6.184 297.433 5.624C298.739 5.064 300.158 4.784 301.689 4.784C304.059 4.784 305.917 5.372 307.261 6.548C308.623 7.70533 309.305 9.36667 309.305 11.532C309.305 12.764 309.109 14.0333 308.717 15.34C308.325 16.628 307.755 17.8693 307.009 19.064C306.281 20.2587 305.394 21.332 304.349 22.284C303.303 23.236 302.127 23.992 300.821 24.552C299.533 25.112 298.123 25.392 296.593 25.392C294.222 25.392 292.365 24.8133 291.021 23.656C289.677 22.48 289.005 20.8187 289.005 18.672ZM332.61 5.26H334.794C335.634 5.26 336.446 5.25067 337.23 5.232C338.014 5.21333 338.705 5.19467 339.302 5.176L339.162 5.736C338.528 5.75467 338.033 5.82933 337.678 5.96C337.324 6.072 337.044 6.296 336.838 6.632C336.652 6.94933 336.465 7.45333 336.278 8.144L332.582 22.032C332.321 23.0587 332.293 23.712 332.498 23.992C332.722 24.2533 333.301 24.4027 334.234 24.44L334.122 25C333.525 24.9627 332.834 24.944 332.05 24.944C331.285 24.9253 330.482 24.916 329.642 24.916C328.746 24.916 327.888 24.9253 327.066 24.944C326.264 24.944 325.629 24.9627 325.162 25L325.274 24.44C325.928 24.4027 326.422 24.328 326.758 24.216C327.113 24.104 327.393 23.88 327.598 23.544C327.804 23.208 327.99 22.704 328.158 22.032L332.218 6.94L320.598 25.14H319.982L317.714 7.948L314.186 21.388C314.037 21.9853 313.962 22.508 313.962 22.956C313.981 23.404 314.158 23.7587 314.494 24.02C314.849 24.2627 315.446 24.4027 316.286 24.44L316.174 25C315.838 24.9627 315.353 24.944 314.718 24.944C314.084 24.9253 313.524 24.916 313.038 24.916C312.553 24.916 312.068 24.9253 311.582 24.944C311.097 24.944 310.696 24.9627 310.378 25L310.518 24.44C311.489 24.4027 312.18 24.1133 312.59 23.572C313.001 23.012 313.318 22.284 313.542 21.388L317.098 8.144C317.36 7.11733 317.378 6.47333 317.154 6.212C316.949 5.932 316.38 5.77333 315.446 5.736L315.586 5.176C316.016 5.19467 316.566 5.21333 317.238 5.232C317.929 5.25067 318.657 5.26 319.422 5.26C319.87 5.26 320.318 5.25067 320.766 5.232C321.214 5.21333 321.606 5.19467 321.942 5.176L323.538 19.484L332.61 5.26ZM345.63 17.048L345.77 16.488H347.03C348.262 16.488 349.298 16.264 350.138 15.816C350.997 15.3493 351.678 14.7427 352.182 13.996C352.705 13.2493 353.078 12.428 353.302 11.532C353.526 10.6173 353.638 9.70267 353.638 8.788C353.638 7.79867 353.423 7.04267 352.994 6.52C352.583 5.99733 351.893 5.736 350.922 5.736C350.343 5.736 349.961 5.89467 349.774 6.212C349.606 6.52933 349.391 7.17333 349.13 8.144L345.434 22.032C345.303 22.5733 345.238 23.0213 345.238 23.376C345.238 23.712 345.378 23.964 345.658 24.132C345.938 24.3 346.414 24.4027 347.086 24.44L346.974 25C346.414 24.9627 345.761 24.944 345.014 24.944C344.267 24.9253 343.483 24.916 342.662 24.916C341.729 24.916 340.842 24.9253 340.002 24.944C339.162 24.944 338.499 24.9627 338.014 25L338.126 24.44C338.761 24.4027 339.255 24.328 339.61 24.216C339.965 24.104 340.245 23.88 340.45 23.544C340.655 23.208 340.842 22.704 341.01 22.032L344.706 8.144C344.837 7.56533 344.902 7.108 344.902 6.772C344.902 6.436 344.771 6.184 344.51 6.016C344.249 5.848 343.763 5.75467 343.054 5.736L343.194 5.176C343.661 5.19467 344.314 5.21333 345.154 5.232C345.994 5.25067 346.825 5.26 347.646 5.26C348.318 5.26 348.99 5.25067 349.662 5.232C350.353 5.21333 351.043 5.204 351.734 5.204C353.974 5.204 355.626 5.568 356.69 6.296C357.773 7.024 358.314 8.06933 358.314 9.432C358.314 10.888 357.829 12.1947 356.858 13.352C355.887 14.4907 354.534 15.396 352.798 16.068C351.062 16.7213 349.046 17.048 346.75 17.048H345.63ZM374.878 19.12C374.766 19.4187 374.654 19.764 374.542 20.156C374.43 20.548 374.318 20.968 374.206 21.416C374.113 21.7707 373.992 22.284 373.842 22.956C373.693 23.6093 373.562 24.2907 373.45 25C372.498 24.9627 371.434 24.944 370.258 24.944C369.082 24.9253 368.028 24.916 367.094 24.916C366.46 24.916 365.62 24.916 364.574 24.916C363.529 24.916 362.418 24.9253 361.242 24.944C360.066 24.944 358.965 24.9627 357.938 25L358.078 24.44C358.713 24.4027 359.208 24.328 359.562 24.216C359.917 24.104 360.188 23.88 360.374 23.544C360.58 23.208 360.776 22.704 360.962 22.032L364.658 8.144C364.92 7.11733 364.938 6.47333 364.714 6.212C364.509 5.932 363.94 5.77333 363.006 5.736L363.146 5.176C363.632 5.19467 364.285 5.21333 365.106 5.232C365.946 5.25067 366.833 5.26 367.766 5.26C368.588 5.26 369.381 5.25067 370.146 5.232C370.912 5.21333 371.574 5.19467 372.134 5.176L371.994 5.736C371.36 5.75467 370.865 5.82933 370.51 5.96C370.156 6.072 369.876 6.296 369.67 6.632C369.465 6.94933 369.269 7.45333 369.082 8.144L365.386 22.032C365.125 23.0587 365.097 23.7027 365.302 23.964C365.508 24.2253 366.077 24.356 367.01 24.356H368.13C368.97 24.356 369.754 24.188 370.482 23.852C371.229 23.516 371.92 22.9653 372.554 22.2C373.189 21.4347 373.758 20.408 374.262 19.12H374.878ZM384.355 15.312L384.495 14.752H390.039L389.899 15.312H384.355ZM387.295 14.752C388.005 14.752 388.602 14.5747 389.087 14.22C389.573 13.8653 389.983 13.436 390.319 12.932C390.674 12.4093 390.945 11.896 391.131 11.392H391.775C391.477 12.2507 391.262 12.9413 391.131 13.464C391.001 13.968 390.87 14.4907 390.739 15.032C390.646 15.368 390.562 15.6947 390.487 16.012C390.413 16.3293 390.329 16.6933 390.235 17.104C390.161 17.496 390.058 18.0187 389.927 18.672H389.311C389.349 18.168 389.321 17.664 389.227 17.16C389.153 16.6373 388.947 16.1987 388.611 15.844C388.294 15.4893 387.753 15.312 386.987 15.312L387.295 14.752ZM394.799 10.216C394.874 9.11467 394.827 8.24667 394.659 7.612C394.491 6.95867 394.165 6.50133 393.679 6.24C393.213 5.96 392.559 5.82 391.719 5.82H390.851C390.235 5.82 389.75 5.876 389.395 5.988C389.059 6.08133 388.789 6.296 388.583 6.632C388.397 6.94933 388.21 7.45333 388.023 8.144L384.327 22.032C384.047 23.0587 384.01 23.7027 384.215 23.964C384.439 24.2253 385.009 24.356 385.923 24.356H386.959C387.967 24.356 388.817 24.1973 389.507 23.88C390.198 23.5627 390.814 23.0493 391.355 22.34C391.915 21.612 392.466 20.632 393.007 19.4H393.651C393.558 19.6427 393.455 19.9413 393.343 20.296C393.231 20.6507 393.129 21.024 393.035 21.416C392.942 21.7707 392.821 22.284 392.671 22.956C392.522 23.6093 392.401 24.2907 392.307 25C391.355 24.9627 390.291 24.944 389.115 24.944C387.939 24.9253 386.885 24.916 385.951 24.916C385.317 24.916 384.477 24.916 383.431 24.916C382.386 24.916 381.285 24.9253 380.127 24.944C378.97 24.944 377.878 24.9627 376.851 25L376.991 24.44C377.626 24.4027 378.121 24.328 378.475 24.216C378.83 24.104 379.101 23.88 379.287 23.544C379.493 23.208 379.689 22.704 379.875 22.032L383.571 8.144C383.833 7.11733 383.851 6.47333 383.627 6.212C383.422 5.932 382.853 5.77333 381.919 5.736L382.059 5.176C383.086 5.19467 384.178 5.21333 385.335 5.232C386.493 5.25067 387.594 5.26 388.639 5.26C389.685 5.26 390.525 5.26 391.159 5.26C391.999 5.26 392.942 5.26 393.987 5.26C395.051 5.24133 396.003 5.21333 396.843 5.176C396.601 5.82933 396.395 6.41733 396.227 6.94C396.059 7.46267 395.91 7.976 395.779 8.48C395.705 8.816 395.63 9.13333 395.555 9.432C395.499 9.73067 395.453 9.992 395.415 10.216H394.799ZM419.411 0.975999C420.083 0.975999 420.605 1.18133 420.979 1.592C421.371 1.984 421.567 2.432 421.567 2.936C421.567 3.53333 421.389 4.056 421.035 4.504C420.699 4.952 420.232 5.316 419.635 5.596C419.075 5.85733 418.403 6.06267 417.619 6.212C416.835 6.34267 415.948 6.408 414.959 6.408C414.063 6.408 413.064 6.352 411.963 6.24C410.861 6.128 409.76 6.016 408.659 5.904C407.576 5.792 406.568 5.736 405.635 5.736C405 5.736 404.393 5.77333 403.815 5.848C403.236 5.904 402.788 6.02533 402.471 6.212C402.956 6.34267 403.357 6.61333 403.675 7.024C403.992 7.43467 404.151 7.92 404.151 8.48C404.151 9.11467 403.945 9.66533 403.535 10.132C403.143 10.5987 402.62 10.832 401.967 10.832C401.313 10.832 400.809 10.6173 400.455 10.188C400.119 9.74 399.951 9.21733 399.951 8.62C399.951 8.172 400.072 7.696 400.315 7.192C400.576 6.66933 401.061 6.24 401.771 5.904C402.219 5.68 402.685 5.52133 403.171 5.428C403.656 5.33467 404.113 5.27867 404.543 5.26C404.972 5.24133 405.299 5.232 405.523 5.232C406.68 5.232 407.809 5.288 408.911 5.4C410.012 5.49333 411.085 5.596 412.131 5.708C413.195 5.80133 414.221 5.848 415.211 5.848C415.939 5.848 416.545 5.81067 417.031 5.736C417.535 5.66133 417.992 5.54933 418.403 5.4L418.347 5.624C418.067 5.4 417.805 5.08267 417.563 4.672C417.32 4.26133 417.199 3.79467 417.199 3.272C417.199 2.6 417.395 2.04933 417.787 1.62C418.197 1.19067 418.739 0.975999 419.411 0.975999ZM409.051 5.708C409.051 5.708 409.191 5.72667 409.471 5.764C409.769 5.78267 410.133 5.81067 410.563 5.848C410.992 5.88533 411.421 5.92267 411.851 5.96C412.28 5.99733 412.644 6.03467 412.943 6.072C413.241 6.09067 413.391 6.1 413.391 6.1L409.219 21.752C408.957 22.76 408.957 23.4507 409.219 23.824C409.499 24.1787 410.199 24.384 411.319 24.44L411.207 25C410.628 24.9627 409.872 24.944 408.939 24.944C408.005 24.9253 407.035 24.916 406.027 24.916C405.056 24.916 404.123 24.9253 403.227 24.944C402.349 24.944 401.64 24.9627 401.099 25L401.211 24.44C401.995 24.4027 402.611 24.3093 403.059 24.16C403.525 23.992 403.88 23.7213 404.123 23.348C404.384 22.956 404.599 22.424 404.767 21.752L409.051 5.708ZM424.833 22.032C424.572 23.0587 424.544 23.712 424.749 23.992C424.955 24.2533 425.533 24.4027 426.485 24.44L426.373 25C425.832 24.9627 425.141 24.944 424.301 24.944C423.48 24.9253 422.649 24.916 421.809 24.916C420.913 24.916 420.073 24.9253 419.289 24.944C418.524 24.944 417.899 24.9627 417.413 25L417.553 24.44C418.169 24.4027 418.645 24.328 418.981 24.216C419.336 24.104 419.616 23.88 419.821 23.544C420.027 23.208 420.213 22.704 420.381 22.032L424.077 8.144C424.339 7.11733 424.357 6.47333 424.133 6.212C423.928 5.932 423.359 5.77333 422.425 5.736L422.565 5.176C423.013 5.19467 423.629 5.21333 424.413 5.232C425.197 5.25067 426.047 5.26 426.961 5.26C427.801 5.26 428.623 5.25067 429.425 5.232C430.247 5.21333 430.956 5.19467 431.553 5.176L431.413 5.736C430.779 5.75467 430.284 5.82933 429.929 5.96C429.575 6.072 429.295 6.296 429.089 6.632C428.903 6.94933 428.716 7.45333 428.529 8.144L424.833 22.032ZM445.04 5.288C444.05 5.288 443.098 5.68 442.184 6.464C441.288 7.248 440.476 8.30267 439.748 9.628C439.038 10.9533 438.469 12.4373 438.04 14.08C437.629 15.704 437.424 17.356 437.424 19.036C437.424 20.8653 437.704 22.3027 438.264 23.348C438.842 24.3747 439.57 24.888 440.448 24.888C441.437 24.888 442.38 24.496 443.276 23.712C444.19 22.928 445.002 21.8733 445.712 20.548C446.44 19.2227 447.009 17.748 447.42 16.124C447.849 14.4813 448.064 12.82 448.064 11.14C448.064 9.31067 447.774 7.88267 447.196 6.856C446.636 5.81067 445.917 5.288 445.04 5.288ZM432.608 18.672C432.608 17.44 432.804 16.1707 433.196 14.864C433.588 13.5573 434.148 12.3067 434.876 11.112C435.604 9.91733 436.481 8.844 437.508 7.892C438.553 6.94 439.729 6.184 441.036 5.624C442.342 5.064 443.761 4.784 445.292 4.784C447.662 4.784 449.52 5.372 450.864 6.548C452.226 7.70533 452.908 9.36667 452.908 11.532C452.908 12.764 452.712 14.0333 452.32 15.34C451.928 16.628 451.358 17.8693 450.612 19.064C449.884 20.2587 448.997 21.332 447.952 22.284C446.906 23.236 445.73 23.992 444.424 24.552C443.136 25.112 441.726 25.392 440.196 25.392C437.825 25.392 435.968 24.8133 434.624 23.656C433.28 22.48 432.608 20.8187 432.608 18.672ZM468.244 25.14L461.132 9.572C461.132 9.572 461.132 9.49733 461.132 9.348C461.132 9.19867 461.123 9.04 461.104 8.872C461.104 8.68533 461.095 8.51733 461.076 8.368C461.076 8.21867 461.076 8.144 461.076 8.144C461.225 7.45333 461.272 6.94933 461.216 6.632C461.179 6.296 460.992 6.072 460.656 5.96C460.339 5.82933 459.816 5.75467 459.088 5.736L459.228 5.176C459.527 5.19467 459.891 5.21333 460.32 5.232C460.768 5.25067 461.235 5.26 461.72 5.26C462.597 5.26 463.353 5.232 463.988 5.176L469.924 18.784C469.924 18.784 469.887 18.9987 469.812 19.428C469.737 19.8573 469.644 20.3893 469.532 21.024C469.439 21.64 469.336 22.2653 469.224 22.9C469.131 23.5347 469.047 24.0667 468.972 24.496C468.897 24.9253 468.86 25.14 468.86 25.14H468.244ZM476.84 4.42C476.355 4.42 475.916 4.56 475.524 4.84C475.132 5.12 474.787 5.47467 474.488 5.904C473.629 7.17333 472.752 9.404 471.856 12.596C470.96 15.788 469.961 19.9693 468.86 25.14L468.468 24.356C468.804 22.788 469.177 21.0893 469.588 19.26C470.017 17.412 470.465 15.6013 470.932 13.828C471.399 12.0547 471.884 10.4493 472.388 9.012C472.911 7.57467 473.443 6.464 473.984 5.68C474.339 5.176 474.759 4.756 475.244 4.42C475.729 4.06533 476.317 3.888 477.008 3.888C477.867 3.888 478.52 4.12133 478.968 4.588C479.435 5.05467 479.668 5.61467 479.668 6.268C479.668 6.97733 479.425 7.584 478.94 8.088C478.473 8.57333 477.867 8.816 477.12 8.816C476.504 8.816 476.028 8.66667 475.692 8.368C475.356 8.05067 475.188 7.64933 475.188 7.164C475.188 6.52933 475.393 5.97867 475.804 5.512C476.215 5.02667 476.709 4.7 477.288 4.532C477.251 4.49467 477.185 4.46667 477.092 4.448C477.017 4.42933 476.933 4.42 476.84 4.42ZM454.132 26.54C454.636 26.54 455.084 26.4 455.476 26.12C455.868 25.8587 456.204 25.4947 456.484 25.028C457.025 24.1693 457.567 22.8253 458.108 20.996C458.668 19.1667 459.228 16.9547 459.788 14.36C460.367 11.7653 460.945 8.91867 461.524 5.82L462 6.408C461.627 8.312 461.235 10.2533 460.824 12.232C460.413 14.2107 459.984 16.0867 459.536 17.86C459.107 19.6333 458.668 21.1827 458.22 22.508C457.791 23.8147 457.361 24.748 456.932 25.308C456.596 25.756 456.195 26.1573 455.728 26.512C455.28 26.8853 454.683 27.072 453.936 27.072C453.096 27.072 452.452 26.8387 452.004 26.372C451.537 25.9053 451.304 25.3453 451.304 24.692C451.304 23.964 451.547 23.3573 452.032 22.872C452.517 22.3867 453.124 22.144 453.852 22.144C454.487 22.144 454.963 22.3027 455.28 22.62C455.616 22.9187 455.784 23.3107 455.784 23.796C455.784 24.4307 455.579 24.9813 455.168 25.448C454.757 25.9147 454.253 26.2413 453.656 26.428C453.712 26.4653 453.777 26.4933 453.852 26.512C453.927 26.5307 454.02 26.54 454.132 26.54Z" fill="#4080FF"/>
</svg>
