<svg width="16" height="16" viewBox="0 0 16 16" fill="none" xmlns="http://www.w3.org/2000/svg">
<path fill-rule="evenodd" clip-rule="evenodd" d="M8.0013 0.666748C3.9513 0.666748 0.667969 3.95008 0.667969 8.00008C0.667969 12.0501 3.9513 15.3334 8.0013 15.3334C12.0513 15.3334 15.3346 12.0501 15.3346 8.00008C15.3346 3.95008 12.0513 0.666748 8.0013 0.666748ZM11.18 6.76008C11.2385 6.69318 11.2831 6.61524 11.311 6.53086C11.339 6.44648 11.3498 6.35736 11.3428 6.26874C11.3358 6.18012 11.3112 6.09379 11.2704 6.01483C11.2295 5.93588 11.1733 5.86588 11.105 5.80898C11.0367 5.75207 10.9577 5.70939 10.8727 5.68346C10.7877 5.65752 10.6983 5.64886 10.6099 5.65797C10.5215 5.66708 10.4358 5.69378 10.3578 5.7365C10.2798 5.77923 10.2112 5.83711 10.156 5.90675L7.2893 9.34608L5.80597 7.86208C5.68023 7.74064 5.51183 7.67345 5.33703 7.67496C5.16224 7.67648 4.99503 7.7466 4.87142 7.8702C4.74782 7.99381 4.6777 8.16102 4.67619 8.33581C4.67467 8.51061 4.74186 8.67901 4.8633 8.80475L6.8633 10.8047C6.92881 10.8702 7.00723 10.9213 7.09358 10.9548C7.17993 10.9883 7.2723 11.0034 7.36481 10.9992C7.45733 10.995 7.54795 10.9715 7.63091 10.9304C7.71387 10.8892 7.78733 10.8312 7.84663 10.7601L11.18 6.76008Z" fill="#397F66"/>
</svg>
