<svg width="215" height="144" viewBox="0 0 215 144" fill="none" xmlns="http://www.w3.org/2000/svg">
<path d="M5.6087 2.80519C5.6087 4.35446 4.35315 5.61039 2.80435 5.61039C1.25555 5.61039 0 4.35446 0 2.80519C0 1.25593 1.25555 0 2.80435 0C4.35315 0 5.6087 1.25593 5.6087 2.80519Z" fill="#F8E2D3"/>
<path d="M5.6087 23.3766C5.6087 24.9259 4.35315 26.1818 2.80435 26.1818C1.25555 26.1818 0 24.9259 0 23.3766C0 21.8274 1.25555 20.5714 2.80435 20.5714C4.35315 20.5714 5.6087 21.8274 5.6087 23.3766Z" fill="#F8E2D3"/>
<path d="M5.6087 23.3766C5.6087 24.9259 4.35315 26.1818 2.80435 26.1818C1.25555 26.1818 0 24.9259 0 23.3766C0 21.8274 1.25555 20.5714 2.80435 20.5714C4.35315 20.5714 5.6087 21.8274 5.6087 23.3766Z" fill="#F8E2D3"/>
<path d="M5.6087 43.013C5.6087 44.5623 4.35315 45.8182 2.80435 45.8182C1.25555 45.8182 0 44.5623 0 43.013C0 41.4637 1.25555 40.2078 2.80435 40.2078C4.35315 40.2078 5.6087 41.4637 5.6087 43.013Z" fill="#F8E2D3"/>
<path d="M5.6087 62.6493C5.6087 64.1986 4.35315 65.4545 2.80435 65.4545C1.25555 65.4545 0 64.1986 0 62.6493C0 61.1001 1.25555 59.8442 2.80435 59.8442C4.35315 59.8442 5.6087 61.1001 5.6087 62.6493Z" fill="#F8E2D3"/>
<path d="M5.6087 82.2857C5.6087 83.835 4.35315 85.0909 2.80435 85.0909C1.25555 85.0909 0 83.835 0 82.2857C0 80.7364 1.25555 79.4805 2.80435 79.4805C4.35315 79.4805 5.6087 80.7364 5.6087 82.2857Z" fill="#F8E2D3"/>
<path d="M5.6087 101.922C5.6087 103.471 4.35315 104.727 2.80435 104.727C1.25555 104.727 0 103.471 0 101.922C0 100.373 1.25555 99.1169 2.80435 99.1169C4.35315 99.1169 5.6087 100.373 5.6087 101.922Z" fill="#F8E2D3"/>
<path d="M5.6087 121.558C5.6087 123.108 4.35315 124.364 2.80435 124.364C1.25555 124.364 0 123.108 0 121.558C0 120.009 1.25555 118.753 2.80435 118.753C4.35315 118.753 5.6087 120.009 5.6087 121.558Z" fill="#F8E2D3"/>
<path d="M5.6087 141.195C5.6087 142.744 4.35315 144 2.80435 144C1.25555 144 0 142.744 0 141.195C0 139.646 1.25555 138.39 2.80435 138.39C4.35315 138.39 5.6087 139.646 5.6087 141.195Z" fill="#F8E2D3"/>
<path d="M20.5652 2.80519C20.5652 4.35446 19.3097 5.61039 17.7609 5.61039C16.2121 5.61039 14.9565 4.35446 14.9565 2.80519C14.9565 1.25593 16.2121 0 17.7609 0C19.3097 0 20.5652 1.25593 20.5652 2.80519Z" fill="#F8E2D3"/>
<path d="M20.5652 23.3766C20.5652 24.9259 19.3097 26.1818 17.7609 26.1818C16.2121 26.1818 14.9565 24.9259 14.9565 23.3766C14.9565 21.8274 16.2121 20.5714 17.7609 20.5714C19.3097 20.5714 20.5652 21.8274 20.5652 23.3766Z" fill="#F8E2D3"/>
<path d="M20.5652 23.3766C20.5652 24.9259 19.3097 26.1818 17.7609 26.1818C16.2121 26.1818 14.9565 24.9259 14.9565 23.3766C14.9565 21.8274 16.2121 20.5714 17.7609 20.5714C19.3097 20.5714 20.5652 21.8274 20.5652 23.3766Z" fill="#F8E2D3"/>
<path d="M20.5652 43.013C20.5652 44.5623 19.3097 45.8182 17.7609 45.8182C16.2121 45.8182 14.9565 44.5623 14.9565 43.013C14.9565 41.4637 16.2121 40.2078 17.7609 40.2078C19.3097 40.2078 20.5652 41.4637 20.5652 43.013Z" fill="#F8E2D3"/>
<path d="M20.5652 62.6493C20.5652 64.1986 19.3097 65.4545 17.7609 65.4545C16.2121 65.4545 14.9565 64.1986 14.9565 62.6493C14.9565 61.1001 16.2121 59.8442 17.7609 59.8442C19.3097 59.8442 20.5652 61.1001 20.5652 62.6493Z" fill="#F8E2D3"/>
<path d="M20.5652 82.2857C20.5652 83.835 19.3097 85.0909 17.7609 85.0909C16.2121 85.0909 14.9565 83.835 14.9565 82.2857C14.9565 80.7364 16.2121 79.4805 17.7609 79.4805C19.3097 79.4805 20.5652 80.7364 20.5652 82.2857Z" fill="#F8E2D3"/>
<path d="M20.5652 101.922C20.5652 103.471 19.3097 104.727 17.7609 104.727C16.2121 104.727 14.9565 103.471 14.9565 101.922C14.9565 100.373 16.2121 99.1169 17.7609 99.1169C19.3097 99.1169 20.5652 100.373 20.5652 101.922Z" fill="#F8E2D3"/>
<path d="M20.5652 121.558C20.5652 123.108 19.3097 124.364 17.7609 124.364C16.2121 124.364 14.9565 123.108 14.9565 121.558C14.9565 120.009 16.2121 118.753 17.7609 118.753C19.3097 118.753 20.5652 120.009 20.5652 121.558Z" fill="#F8E2D3"/>
<path d="M20.5652 141.195C20.5652 142.744 19.3097 144 17.7609 144C16.2121 144 14.9565 142.744 14.9565 141.195C14.9565 139.646 16.2121 138.39 17.7609 138.39C19.3097 138.39 20.5652 139.646 20.5652 141.195Z" fill="#F8E2D3"/>
<path d="M35.5217 2.80519C35.5217 4.35446 34.2662 5.61039 32.7174 5.61039C31.1686 5.61039 29.913 4.35446 29.913 2.80519C29.913 1.25593 31.1686 0 32.7174 0C34.2662 0 35.5217 1.25593 35.5217 2.80519Z" fill="#F8E2D3"/>
<path d="M35.5217 23.3766C35.5217 24.9259 34.2662 26.1818 32.7174 26.1818C31.1686 26.1818 29.913 24.9259 29.913 23.3766C29.913 21.8274 31.1686 20.5714 32.7174 20.5714C34.2662 20.5714 35.5217 21.8274 35.5217 23.3766Z" fill="#F8E2D3"/>
<path d="M35.5217 23.3766C35.5217 24.9259 34.2662 26.1818 32.7174 26.1818C31.1686 26.1818 29.913 24.9259 29.913 23.3766C29.913 21.8274 31.1686 20.5714 32.7174 20.5714C34.2662 20.5714 35.5217 21.8274 35.5217 23.3766Z" fill="#F8E2D3"/>
<path d="M35.5217 43.013C35.5217 44.5623 34.2662 45.8182 32.7174 45.8182C31.1686 45.8182 29.913 44.5623 29.913 43.013C29.913 41.4637 31.1686 40.2078 32.7174 40.2078C34.2662 40.2078 35.5217 41.4637 35.5217 43.013Z" fill="#F8E2D3"/>
<path d="M35.5217 62.6493C35.5217 64.1986 34.2662 65.4545 32.7174 65.4545C31.1686 65.4545 29.913 64.1986 29.913 62.6493C29.913 61.1001 31.1686 59.8442 32.7174 59.8442C34.2662 59.8442 35.5217 61.1001 35.5217 62.6493Z" fill="#F8E2D3"/>
<path d="M35.5217 82.2857C35.5217 83.835 34.2662 85.0909 32.7174 85.0909C31.1686 85.0909 29.913 83.835 29.913 82.2857C29.913 80.7364 31.1686 79.4805 32.7174 79.4805C34.2662 79.4805 35.5217 80.7364 35.5217 82.2857Z" fill="#F8E2D3"/>
<path d="M35.5217 101.922C35.5217 103.471 34.2662 104.727 32.7174 104.727C31.1686 104.727 29.913 103.471 29.913 101.922C29.913 100.373 31.1686 99.1169 32.7174 99.1169C34.2662 99.1169 35.5217 100.373 35.5217 101.922Z" fill="#F8E2D3"/>
<path d="M35.5217 121.558C35.5217 123.108 34.2662 124.364 32.7174 124.364C31.1686 124.364 29.913 123.108 29.913 121.558C29.913 120.009 31.1686 118.753 32.7174 118.753C34.2662 118.753 35.5217 120.009 35.5217 121.558Z" fill="#F8E2D3"/>
<path d="M35.5217 141.195C35.5217 142.744 34.2662 144 32.7174 144C31.1686 144 29.913 142.744 29.913 141.195C29.913 139.646 31.1686 138.39 32.7174 138.39C34.2662 138.39 35.5217 139.646 35.5217 141.195Z" fill="#F8E2D3"/>
<path d="M50.4783 2.80519C50.4783 4.35446 49.2227 5.61039 47.6739 5.61039C46.1251 5.61039 44.8696 4.35446 44.8696 2.80519C44.8696 1.25593 46.1251 0 47.6739 0C49.2227 0 50.4783 1.25593 50.4783 2.80519Z" fill="#F8E2D3"/>
<path d="M50.4783 23.3766C50.4783 24.9259 49.2227 26.1818 47.6739 26.1818C46.1251 26.1818 44.8696 24.9259 44.8696 23.3766C44.8696 21.8274 46.1251 20.5714 47.6739 20.5714C49.2227 20.5714 50.4783 21.8274 50.4783 23.3766Z" fill="#F8E2D3"/>
<path d="M50.4783 23.3766C50.4783 24.9259 49.2227 26.1818 47.6739 26.1818C46.1251 26.1818 44.8696 24.9259 44.8696 23.3766C44.8696 21.8274 46.1251 20.5714 47.6739 20.5714C49.2227 20.5714 50.4783 21.8274 50.4783 23.3766Z" fill="#F8E2D3"/>
<path d="M50.4783 43.013C50.4783 44.5623 49.2227 45.8182 47.6739 45.8182C46.1251 45.8182 44.8696 44.5623 44.8696 43.013C44.8696 41.4637 46.1251 40.2078 47.6739 40.2078C49.2227 40.2078 50.4783 41.4637 50.4783 43.013Z" fill="#F8E2D3"/>
<path d="M50.4783 62.6493C50.4783 64.1986 49.2227 65.4545 47.6739 65.4545C46.1251 65.4545 44.8696 64.1986 44.8696 62.6493C44.8696 61.1001 46.1251 59.8442 47.6739 59.8442C49.2227 59.8442 50.4783 61.1001 50.4783 62.6493Z" fill="#F8E2D3"/>
<path d="M50.4783 82.2857C50.4783 83.835 49.2227 85.0909 47.6739 85.0909C46.1251 85.0909 44.8696 83.835 44.8696 82.2857C44.8696 80.7364 46.1251 79.4805 47.6739 79.4805C49.2227 79.4805 50.4783 80.7364 50.4783 82.2857Z" fill="#F8E2D3"/>
<path d="M50.4783 101.922C50.4783 103.471 49.2227 104.727 47.6739 104.727C46.1251 104.727 44.8696 103.471 44.8696 101.922C44.8696 100.373 46.1251 99.1169 47.6739 99.1169C49.2227 99.1169 50.4783 100.373 50.4783 101.922Z" fill="#F8E2D3"/>
<path d="M50.4783 121.558C50.4783 123.108 49.2227 124.364 47.6739 124.364C46.1251 124.364 44.8696 123.108 44.8696 121.558C44.8696 120.009 46.1251 118.753 47.6739 118.753C49.2227 118.753 50.4783 120.009 50.4783 121.558Z" fill="#F8E2D3"/>
<path d="M50.4783 141.195C50.4783 142.744 49.2227 144 47.6739 144C46.1251 144 44.8696 142.744 44.8696 141.195C44.8696 139.646 46.1251 138.39 47.6739 138.39C49.2227 138.39 50.4783 139.646 50.4783 141.195Z" fill="#F8E2D3"/>
<path d="M65.4348 2.80519C65.4348 4.35446 64.1792 5.61039 62.6304 5.61039C61.0816 5.61039 59.8261 4.35446 59.8261 2.80519C59.8261 1.25593 61.0816 0 62.6304 0C64.1792 0 65.4348 1.25593 65.4348 2.80519Z" fill="#F8E2D3"/>
<path d="M65.4348 23.3766C65.4348 24.9259 64.1792 26.1818 62.6304 26.1818C61.0816 26.1818 59.8261 24.9259 59.8261 23.3766C59.8261 21.8274 61.0816 20.5714 62.6304 20.5714C64.1792 20.5714 65.4348 21.8274 65.4348 23.3766Z" fill="#F8E2D3"/>
<path d="M65.4348 23.3766C65.4348 24.9259 64.1792 26.1818 62.6304 26.1818C61.0816 26.1818 59.8261 24.9259 59.8261 23.3766C59.8261 21.8274 61.0816 20.5714 62.6304 20.5714C64.1792 20.5714 65.4348 21.8274 65.4348 23.3766Z" fill="#F8E2D3"/>
<path d="M65.4348 43.013C65.4348 44.5623 64.1792 45.8182 62.6304 45.8182C61.0816 45.8182 59.8261 44.5623 59.8261 43.013C59.8261 41.4637 61.0816 40.2078 62.6304 40.2078C64.1792 40.2078 65.4348 41.4637 65.4348 43.013Z" fill="#F8E2D3"/>
<path d="M65.4348 62.6493C65.4348 64.1986 64.1792 65.4545 62.6304 65.4545C61.0816 65.4545 59.8261 64.1986 59.8261 62.6493C59.8261 61.1001 61.0816 59.8442 62.6304 59.8442C64.1792 59.8442 65.4348 61.1001 65.4348 62.6493Z" fill="#F8E2D3"/>
<path d="M65.4348 82.2857C65.4348 83.835 64.1792 85.0909 62.6304 85.0909C61.0816 85.0909 59.8261 83.835 59.8261 82.2857C59.8261 80.7364 61.0816 79.4805 62.6304 79.4805C64.1792 79.4805 65.4348 80.7364 65.4348 82.2857Z" fill="#F8E2D3"/>
<path d="M65.4348 101.922C65.4348 103.471 64.1792 104.727 62.6304 104.727C61.0816 104.727 59.8261 103.471 59.8261 101.922C59.8261 100.373 61.0816 99.1169 62.6304 99.1169C64.1792 99.1169 65.4348 100.373 65.4348 101.922Z" fill="#F8E2D3"/>
<path d="M65.4348 121.558C65.4348 123.108 64.1792 124.364 62.6304 124.364C61.0816 124.364 59.8261 123.108 59.8261 121.558C59.8261 120.009 61.0816 118.753 62.6304 118.753C64.1792 118.753 65.4348 120.009 65.4348 121.558Z" fill="#F8E2D3"/>
<path d="M65.4348 141.195C65.4348 142.744 64.1792 144 62.6304 144C61.0816 144 59.8261 142.744 59.8261 141.195C59.8261 139.646 61.0816 138.39 62.6304 138.39C64.1792 138.39 65.4348 139.646 65.4348 141.195Z" fill="#F8E2D3"/>
<path d="M80.3913 2.80519C80.3913 4.35446 79.1358 5.61039 77.587 5.61039C76.0382 5.61039 74.7826 4.35446 74.7826 2.80519C74.7826 1.25593 76.0382 0 77.587 0C79.1358 0 80.3913 1.25593 80.3913 2.80519Z" fill="#F8E2D3"/>
<path d="M80.3913 23.3766C80.3913 24.9259 79.1358 26.1818 77.587 26.1818C76.0382 26.1818 74.7826 24.9259 74.7826 23.3766C74.7826 21.8274 76.0382 20.5714 77.587 20.5714C79.1358 20.5714 80.3913 21.8274 80.3913 23.3766Z" fill="#F8E2D3"/>
<path d="M80.3913 23.3766C80.3913 24.9259 79.1358 26.1818 77.587 26.1818C76.0382 26.1818 74.7826 24.9259 74.7826 23.3766C74.7826 21.8274 76.0382 20.5714 77.587 20.5714C79.1358 20.5714 80.3913 21.8274 80.3913 23.3766Z" fill="#F8E2D3"/>
<path d="M80.3913 43.013C80.3913 44.5623 79.1358 45.8182 77.587 45.8182C76.0382 45.8182 74.7826 44.5623 74.7826 43.013C74.7826 41.4637 76.0382 40.2078 77.587 40.2078C79.1358 40.2078 80.3913 41.4637 80.3913 43.013Z" fill="#F8E2D3"/>
<path d="M80.3913 62.6493C80.3913 64.1986 79.1358 65.4545 77.587 65.4545C76.0382 65.4545 74.7826 64.1986 74.7826 62.6493C74.7826 61.1001 76.0382 59.8442 77.587 59.8442C79.1358 59.8442 80.3913 61.1001 80.3913 62.6493Z" fill="#F8E2D3"/>
<path d="M80.3913 82.2857C80.3913 83.835 79.1358 85.0909 77.587 85.0909C76.0382 85.0909 74.7826 83.835 74.7826 82.2857C74.7826 80.7364 76.0382 79.4805 77.587 79.4805C79.1358 79.4805 80.3913 80.7364 80.3913 82.2857Z" fill="#F8E2D3"/>
<path d="M80.3913 101.922C80.3913 103.471 79.1358 104.727 77.587 104.727C76.0382 104.727 74.7826 103.471 74.7826 101.922C74.7826 100.373 76.0382 99.1169 77.587 99.1169C79.1358 99.1169 80.3913 100.373 80.3913 101.922Z" fill="#F8E2D3"/>
<path d="M80.3913 121.558C80.3913 123.108 79.1358 124.364 77.587 124.364C76.0382 124.364 74.7826 123.108 74.7826 121.558C74.7826 120.009 76.0382 118.753 77.587 118.753C79.1358 118.753 80.3913 120.009 80.3913 121.558Z" fill="#F8E2D3"/>
<path d="M80.3913 141.195C80.3913 142.744 79.1358 144 77.587 144C76.0382 144 74.7826 142.744 74.7826 141.195C74.7826 139.646 76.0382 138.39 77.587 138.39C79.1358 138.39 80.3913 139.646 80.3913 141.195Z" fill="#F8E2D3"/>
<path d="M95.3478 2.80519C95.3478 4.35446 94.0923 5.61039 92.5435 5.61039C90.9947 5.61039 89.7391 4.35446 89.7391 2.80519C89.7391 1.25593 90.9947 0 92.5435 0C94.0923 0 95.3478 1.25593 95.3478 2.80519Z" fill="#F8E2D3"/>
<path d="M95.3478 23.3766C95.3478 24.9259 94.0923 26.1818 92.5435 26.1818C90.9947 26.1818 89.7391 24.9259 89.7391 23.3766C89.7391 21.8274 90.9947 20.5714 92.5435 20.5714C94.0923 20.5714 95.3478 21.8274 95.3478 23.3766Z" fill="#F8E2D3"/>
<path d="M95.3478 23.3766C95.3478 24.9259 94.0923 26.1818 92.5435 26.1818C90.9947 26.1818 89.7391 24.9259 89.7391 23.3766C89.7391 21.8274 90.9947 20.5714 92.5435 20.5714C94.0923 20.5714 95.3478 21.8274 95.3478 23.3766Z" fill="#F8E2D3"/>
<path d="M95.3478 43.013C95.3478 44.5623 94.0923 45.8182 92.5435 45.8182C90.9947 45.8182 89.7391 44.5623 89.7391 43.013C89.7391 41.4637 90.9947 40.2078 92.5435 40.2078C94.0923 40.2078 95.3478 41.4637 95.3478 43.013Z" fill="#F8E2D3"/>
<path d="M95.3478 62.6493C95.3478 64.1986 94.0923 65.4545 92.5435 65.4545C90.9947 65.4545 89.7391 64.1986 89.7391 62.6493C89.7391 61.1001 90.9947 59.8442 92.5435 59.8442C94.0923 59.8442 95.3478 61.1001 95.3478 62.6493Z" fill="#F8E2D3"/>
<path d="M95.3478 82.2857C95.3478 83.835 94.0923 85.0909 92.5435 85.0909C90.9947 85.0909 89.7391 83.835 89.7391 82.2857C89.7391 80.7364 90.9947 79.4805 92.5435 79.4805C94.0923 79.4805 95.3478 80.7364 95.3478 82.2857Z" fill="#F8E2D3"/>
<path d="M95.3478 101.922C95.3478 103.471 94.0923 104.727 92.5435 104.727C90.9947 104.727 89.7391 103.471 89.7391 101.922C89.7391 100.373 90.9947 99.1169 92.5435 99.1169C94.0923 99.1169 95.3478 100.373 95.3478 101.922Z" fill="#F8E2D3"/>
<path d="M95.3478 121.558C95.3478 123.108 94.0923 124.364 92.5435 124.364C90.9947 124.364 89.7391 123.108 89.7391 121.558C89.7391 120.009 90.9947 118.753 92.5435 118.753C94.0923 118.753 95.3478 120.009 95.3478 121.558Z" fill="#F8E2D3"/>
<path d="M95.3478 141.195C95.3478 142.744 94.0923 144 92.5435 144C90.9947 144 89.7391 142.744 89.7391 141.195C89.7391 139.646 90.9947 138.39 92.5435 138.39C94.0923 138.39 95.3478 139.646 95.3478 141.195Z" fill="#F8E2D3"/>
<path d="M110.304 2.80519C110.304 4.35446 109.049 5.61039 107.5 5.61039C105.951 5.61039 104.696 4.35446 104.696 2.80519C104.696 1.25593 105.951 0 107.5 0C109.049 0 110.304 1.25593 110.304 2.80519Z" fill="#F8E2D3"/>
<path d="M110.304 23.3766C110.304 24.9259 109.049 26.1818 107.5 26.1818C105.951 26.1818 104.696 24.9259 104.696 23.3766C104.696 21.8274 105.951 20.5714 107.5 20.5714C109.049 20.5714 110.304 21.8274 110.304 23.3766Z" fill="#F8E2D3"/>
<path d="M110.304 23.3766C110.304 24.9259 109.049 26.1818 107.5 26.1818C105.951 26.1818 104.696 24.9259 104.696 23.3766C104.696 21.8274 105.951 20.5714 107.5 20.5714C109.049 20.5714 110.304 21.8274 110.304 23.3766Z" fill="#F8E2D3"/>
<path d="M110.304 43.013C110.304 44.5623 109.049 45.8182 107.5 45.8182C105.951 45.8182 104.696 44.5623 104.696 43.013C104.696 41.4637 105.951 40.2078 107.5 40.2078C109.049 40.2078 110.304 41.4637 110.304 43.013Z" fill="#F8E2D3"/>
<path d="M110.304 62.6493C110.304 64.1986 109.049 65.4545 107.5 65.4545C105.951 65.4545 104.696 64.1986 104.696 62.6493C104.696 61.1001 105.951 59.8442 107.5 59.8442C109.049 59.8442 110.304 61.1001 110.304 62.6493Z" fill="#F8E2D3"/>
<path d="M110.304 82.2857C110.304 83.835 109.049 85.0909 107.5 85.0909C105.951 85.0909 104.696 83.835 104.696 82.2857C104.696 80.7364 105.951 79.4805 107.5 79.4805C109.049 79.4805 110.304 80.7364 110.304 82.2857Z" fill="#F8E2D3"/>
<path d="M110.304 101.922C110.304 103.471 109.049 104.727 107.5 104.727C105.951 104.727 104.696 103.471 104.696 101.922C104.696 100.373 105.951 99.1169 107.5 99.1169C109.049 99.1169 110.304 100.373 110.304 101.922Z" fill="#F8E2D3"/>
<path d="M110.304 121.558C110.304 123.108 109.049 124.364 107.5 124.364C105.951 124.364 104.696 123.108 104.696 121.558C104.696 120.009 105.951 118.753 107.5 118.753C109.049 118.753 110.304 120.009 110.304 121.558Z" fill="#F8E2D3"/>
<path d="M110.304 141.195C110.304 142.744 109.049 144 107.5 144C105.951 144 104.696 142.744 104.696 141.195C104.696 139.646 105.951 138.39 107.5 138.39C109.049 138.39 110.304 139.646 110.304 141.195Z" fill="#F8E2D3"/>
<path d="M125.261 2.80519C125.261 4.35446 124.005 5.61039 122.457 5.61039C120.908 5.61039 119.652 4.35446 119.652 2.80519C119.652 1.25593 120.908 0 122.457 0C124.005 0 125.261 1.25593 125.261 2.80519Z" fill="#F8E2D3"/>
<path d="M125.261 23.3766C125.261 24.9259 124.005 26.1818 122.457 26.1818C120.908 26.1818 119.652 24.9259 119.652 23.3766C119.652 21.8274 120.908 20.5714 122.457 20.5714C124.005 20.5714 125.261 21.8274 125.261 23.3766Z" fill="#F8E2D3"/>
<path d="M125.261 23.3766C125.261 24.9259 124.005 26.1818 122.457 26.1818C120.908 26.1818 119.652 24.9259 119.652 23.3766C119.652 21.8274 120.908 20.5714 122.457 20.5714C124.005 20.5714 125.261 21.8274 125.261 23.3766Z" fill="#F8E2D3"/>
<path d="M125.261 43.013C125.261 44.5623 124.005 45.8182 122.457 45.8182C120.908 45.8182 119.652 44.5623 119.652 43.013C119.652 41.4637 120.908 40.2078 122.457 40.2078C124.005 40.2078 125.261 41.4637 125.261 43.013Z" fill="#F8E2D3"/>
<path d="M125.261 62.6493C125.261 64.1986 124.005 65.4545 122.457 65.4545C120.908 65.4545 119.652 64.1986 119.652 62.6493C119.652 61.1001 120.908 59.8442 122.457 59.8442C124.005 59.8442 125.261 61.1001 125.261 62.6493Z" fill="#F8E2D3"/>
<path d="M125.261 82.2857C125.261 83.835 124.005 85.0909 122.457 85.0909C120.908 85.0909 119.652 83.835 119.652 82.2857C119.652 80.7364 120.908 79.4805 122.457 79.4805C124.005 79.4805 125.261 80.7364 125.261 82.2857Z" fill="#F8E2D3"/>
<path d="M125.261 101.922C125.261 103.471 124.005 104.727 122.457 104.727C120.908 104.727 119.652 103.471 119.652 101.922C119.652 100.373 120.908 99.1169 122.457 99.1169C124.005 99.1169 125.261 100.373 125.261 101.922Z" fill="#F8E2D3"/>
<path d="M125.261 121.558C125.261 123.108 124.005 124.364 122.457 124.364C120.908 124.364 119.652 123.108 119.652 121.558C119.652 120.009 120.908 118.753 122.457 118.753C124.005 118.753 125.261 120.009 125.261 121.558Z" fill="#F8E2D3"/>
<path d="M125.261 141.195C125.261 142.744 124.005 144 122.457 144C120.908 144 119.652 142.744 119.652 141.195C119.652 139.646 120.908 138.39 122.457 138.39C124.005 138.39 125.261 139.646 125.261 141.195Z" fill="#F8E2D3"/>
<path d="M140.217 2.80519C140.217 4.35446 138.962 5.61039 137.413 5.61039C135.864 5.61039 134.609 4.35446 134.609 2.80519C134.609 1.25593 135.864 0 137.413 0C138.962 0 140.217 1.25593 140.217 2.80519Z" fill="#F8E2D3"/>
<path d="M140.217 23.3766C140.217 24.9259 138.962 26.1818 137.413 26.1818C135.864 26.1818 134.609 24.9259 134.609 23.3766C134.609 21.8274 135.864 20.5714 137.413 20.5714C138.962 20.5714 140.217 21.8274 140.217 23.3766Z" fill="#F8E2D3"/>
<path d="M140.217 23.3766C140.217 24.9259 138.962 26.1818 137.413 26.1818C135.864 26.1818 134.609 24.9259 134.609 23.3766C134.609 21.8274 135.864 20.5714 137.413 20.5714C138.962 20.5714 140.217 21.8274 140.217 23.3766Z" fill="#F8E2D3"/>
<path d="M140.217 43.013C140.217 44.5623 138.962 45.8182 137.413 45.8182C135.864 45.8182 134.609 44.5623 134.609 43.013C134.609 41.4637 135.864 40.2078 137.413 40.2078C138.962 40.2078 140.217 41.4637 140.217 43.013Z" fill="#F8E2D3"/>
<path d="M140.217 62.6493C140.217 64.1986 138.962 65.4545 137.413 65.4545C135.864 65.4545 134.609 64.1986 134.609 62.6493C134.609 61.1001 135.864 59.8442 137.413 59.8442C138.962 59.8442 140.217 61.1001 140.217 62.6493Z" fill="#F8E2D3"/>
<path d="M140.217 82.2857C140.217 83.835 138.962 85.0909 137.413 85.0909C135.864 85.0909 134.609 83.835 134.609 82.2857C134.609 80.7364 135.864 79.4805 137.413 79.4805C138.962 79.4805 140.217 80.7364 140.217 82.2857Z" fill="#F8E2D3"/>
<path d="M140.217 101.922C140.217 103.471 138.962 104.727 137.413 104.727C135.864 104.727 134.609 103.471 134.609 101.922C134.609 100.373 135.864 99.1169 137.413 99.1169C138.962 99.1169 140.217 100.373 140.217 101.922Z" fill="#F8E2D3"/>
<path d="M140.217 121.558C140.217 123.108 138.962 124.364 137.413 124.364C135.864 124.364 134.609 123.108 134.609 121.558C134.609 120.009 135.864 118.753 137.413 118.753C138.962 118.753 140.217 120.009 140.217 121.558Z" fill="#F8E2D3"/>
<path d="M140.217 141.195C140.217 142.744 138.962 144 137.413 144C135.864 144 134.609 142.744 134.609 141.195C134.609 139.646 135.864 138.39 137.413 138.39C138.962 138.39 140.217 139.646 140.217 141.195Z" fill="#F8E2D3"/>
<path d="M155.174 2.80519C155.174 4.35446 153.918 5.61039 152.37 5.61039C150.821 5.61039 149.565 4.35446 149.565 2.80519C149.565 1.25593 150.821 0 152.37 0C153.918 0 155.174 1.25593 155.174 2.80519Z" fill="#F8E2D3"/>
<path d="M155.174 23.3766C155.174 24.9259 153.918 26.1818 152.37 26.1818C150.821 26.1818 149.565 24.9259 149.565 23.3766C149.565 21.8274 150.821 20.5714 152.37 20.5714C153.918 20.5714 155.174 21.8274 155.174 23.3766Z" fill="#F8E2D3"/>
<path d="M155.174 23.3766C155.174 24.9259 153.918 26.1818 152.37 26.1818C150.821 26.1818 149.565 24.9259 149.565 23.3766C149.565 21.8274 150.821 20.5714 152.37 20.5714C153.918 20.5714 155.174 21.8274 155.174 23.3766Z" fill="#F8E2D3"/>
<path d="M155.174 43.013C155.174 44.5623 153.918 45.8182 152.37 45.8182C150.821 45.8182 149.565 44.5623 149.565 43.013C149.565 41.4637 150.821 40.2078 152.37 40.2078C153.918 40.2078 155.174 41.4637 155.174 43.013Z" fill="#F8E2D3"/>
<path d="M155.174 62.6493C155.174 64.1986 153.918 65.4545 152.37 65.4545C150.821 65.4545 149.565 64.1986 149.565 62.6493C149.565 61.1001 150.821 59.8442 152.37 59.8442C153.918 59.8442 155.174 61.1001 155.174 62.6493Z" fill="#F8E2D3"/>
<path d="M155.174 82.2857C155.174 83.835 153.918 85.0909 152.37 85.0909C150.821 85.0909 149.565 83.835 149.565 82.2857C149.565 80.7364 150.821 79.4805 152.37 79.4805C153.918 79.4805 155.174 80.7364 155.174 82.2857Z" fill="#F8E2D3"/>
<path d="M155.174 101.922C155.174 103.471 153.918 104.727 152.37 104.727C150.821 104.727 149.565 103.471 149.565 101.922C149.565 100.373 150.821 99.1169 152.37 99.1169C153.918 99.1169 155.174 100.373 155.174 101.922Z" fill="#F8E2D3"/>
<path d="M155.174 121.558C155.174 123.108 153.918 124.364 152.37 124.364C150.821 124.364 149.565 123.108 149.565 121.558C149.565 120.009 150.821 118.753 152.37 118.753C153.918 118.753 155.174 120.009 155.174 121.558Z" fill="#F8E2D3"/>
<path d="M155.174 141.195C155.174 142.744 153.918 144 152.37 144C150.821 144 149.565 142.744 149.565 141.195C149.565 139.646 150.821 138.39 152.37 138.39C153.918 138.39 155.174 139.646 155.174 141.195Z" fill="#F8E2D3"/>
<path d="M170.13 2.80519C170.13 4.35446 168.875 5.61039 167.326 5.61039C165.777 5.61039 164.522 4.35446 164.522 2.80519C164.522 1.25593 165.777 0 167.326 0C168.875 0 170.13 1.25593 170.13 2.80519Z" fill="#F8E2D3"/>
<path d="M170.13 23.3766C170.13 24.9259 168.875 26.1818 167.326 26.1818C165.777 26.1818 164.522 24.9259 164.522 23.3766C164.522 21.8274 165.777 20.5714 167.326 20.5714C168.875 20.5714 170.13 21.8274 170.13 23.3766Z" fill="#F8E2D3"/>
<path d="M170.13 23.3766C170.13 24.9259 168.875 26.1818 167.326 26.1818C165.777 26.1818 164.522 24.9259 164.522 23.3766C164.522 21.8274 165.777 20.5714 167.326 20.5714C168.875 20.5714 170.13 21.8274 170.13 23.3766Z" fill="#F8E2D3"/>
<path d="M170.13 43.013C170.13 44.5623 168.875 45.8182 167.326 45.8182C165.777 45.8182 164.522 44.5623 164.522 43.013C164.522 41.4637 165.777 40.2078 167.326 40.2078C168.875 40.2078 170.13 41.4637 170.13 43.013Z" fill="#F8E2D3"/>
<path d="M170.13 62.6493C170.13 64.1986 168.875 65.4545 167.326 65.4545C165.777 65.4545 164.522 64.1986 164.522 62.6493C164.522 61.1001 165.777 59.8442 167.326 59.8442C168.875 59.8442 170.13 61.1001 170.13 62.6493Z" fill="#F8E2D3"/>
<path d="M170.13 82.2857C170.13 83.835 168.875 85.0909 167.326 85.0909C165.777 85.0909 164.522 83.835 164.522 82.2857C164.522 80.7364 165.777 79.4805 167.326 79.4805C168.875 79.4805 170.13 80.7364 170.13 82.2857Z" fill="#F8E2D3"/>
<path d="M170.13 101.922C170.13 103.471 168.875 104.727 167.326 104.727C165.777 104.727 164.522 103.471 164.522 101.922C164.522 100.373 165.777 99.1169 167.326 99.1169C168.875 99.1169 170.13 100.373 170.13 101.922Z" fill="#F8E2D3"/>
<path d="M170.13 121.558C170.13 123.108 168.875 124.364 167.326 124.364C165.777 124.364 164.522 123.108 164.522 121.558C164.522 120.009 165.777 118.753 167.326 118.753C168.875 118.753 170.13 120.009 170.13 121.558Z" fill="#F8E2D3"/>
<path d="M170.13 141.195C170.13 142.744 168.875 144 167.326 144C165.777 144 164.522 142.744 164.522 141.195C164.522 139.646 165.777 138.39 167.326 138.39C168.875 138.39 170.13 139.646 170.13 141.195Z" fill="#F8E2D3"/>
<path d="M185.087 2.80519C185.087 4.35446 183.831 5.61039 182.283 5.61039C180.734 5.61039 179.478 4.35446 179.478 2.80519C179.478 1.25593 180.734 0 182.283 0C183.831 0 185.087 1.25593 185.087 2.80519Z" fill="#F8E2D3"/>
<path d="M185.087 23.3766C185.087 24.9259 183.831 26.1818 182.283 26.1818C180.734 26.1818 179.478 24.9259 179.478 23.3766C179.478 21.8274 180.734 20.5714 182.283 20.5714C183.831 20.5714 185.087 21.8274 185.087 23.3766Z" fill="#F8E2D3"/>
<path d="M185.087 23.3766C185.087 24.9259 183.831 26.1818 182.283 26.1818C180.734 26.1818 179.478 24.9259 179.478 23.3766C179.478 21.8274 180.734 20.5714 182.283 20.5714C183.831 20.5714 185.087 21.8274 185.087 23.3766Z" fill="#F8E2D3"/>
<path d="M185.087 43.013C185.087 44.5623 183.831 45.8182 182.283 45.8182C180.734 45.8182 179.478 44.5623 179.478 43.013C179.478 41.4637 180.734 40.2078 182.283 40.2078C183.831 40.2078 185.087 41.4637 185.087 43.013Z" fill="#F8E2D3"/>
<path d="M185.087 62.6493C185.087 64.1986 183.831 65.4545 182.283 65.4545C180.734 65.4545 179.478 64.1986 179.478 62.6493C179.478 61.1001 180.734 59.8442 182.283 59.8442C183.831 59.8442 185.087 61.1001 185.087 62.6493Z" fill="#F8E2D3"/>
<path d="M185.087 82.2857C185.087 83.835 183.831 85.0909 182.283 85.0909C180.734 85.0909 179.478 83.835 179.478 82.2857C179.478 80.7364 180.734 79.4805 182.283 79.4805C183.831 79.4805 185.087 80.7364 185.087 82.2857Z" fill="#F8E2D3"/>
<path d="M185.087 101.922C185.087 103.471 183.831 104.727 182.283 104.727C180.734 104.727 179.478 103.471 179.478 101.922C179.478 100.373 180.734 99.1169 182.283 99.1169C183.831 99.1169 185.087 100.373 185.087 101.922Z" fill="#F8E2D3"/>
<path d="M185.087 121.558C185.087 123.108 183.831 124.364 182.283 124.364C180.734 124.364 179.478 123.108 179.478 121.558C179.478 120.009 180.734 118.753 182.283 118.753C183.831 118.753 185.087 120.009 185.087 121.558Z" fill="#F8E2D3"/>
<path d="M185.087 141.195C185.087 142.744 183.831 144 182.283 144C180.734 144 179.478 142.744 179.478 141.195C179.478 139.646 180.734 138.39 182.283 138.39C183.831 138.39 185.087 139.646 185.087 141.195Z" fill="#F8E2D3"/>
<path d="M200.043 2.80519C200.043 4.35446 198.788 5.61039 197.239 5.61039C195.69 5.61039 194.435 4.35446 194.435 2.80519C194.435 1.25593 195.69 0 197.239 0C198.788 0 200.043 1.25593 200.043 2.80519Z" fill="#F8E2D3"/>
<path d="M200.043 23.3766C200.043 24.9259 198.788 26.1818 197.239 26.1818C195.69 26.1818 194.435 24.9259 194.435 23.3766C194.435 21.8274 195.69 20.5714 197.239 20.5714C198.788 20.5714 200.043 21.8274 200.043 23.3766Z" fill="#F8E2D3"/>
<path d="M200.043 23.3766C200.043 24.9259 198.788 26.1818 197.239 26.1818C195.69 26.1818 194.435 24.9259 194.435 23.3766C194.435 21.8274 195.69 20.5714 197.239 20.5714C198.788 20.5714 200.043 21.8274 200.043 23.3766Z" fill="#F8E2D3"/>
<path d="M200.043 43.013C200.043 44.5623 198.788 45.8182 197.239 45.8182C195.69 45.8182 194.435 44.5623 194.435 43.013C194.435 41.4637 195.69 40.2078 197.239 40.2078C198.788 40.2078 200.043 41.4637 200.043 43.013Z" fill="#F8E2D3"/>
<path d="M200.043 62.6493C200.043 64.1986 198.788 65.4545 197.239 65.4545C195.69 65.4545 194.435 64.1986 194.435 62.6493C194.435 61.1001 195.69 59.8442 197.239 59.8442C198.788 59.8442 200.043 61.1001 200.043 62.6493Z" fill="#F8E2D3"/>
<path d="M200.043 82.2857C200.043 83.835 198.788 85.0909 197.239 85.0909C195.69 85.0909 194.435 83.835 194.435 82.2857C194.435 80.7364 195.69 79.4805 197.239 79.4805C198.788 79.4805 200.043 80.7364 200.043 82.2857Z" fill="#F8E2D3"/>
<path d="M200.043 101.922C200.043 103.471 198.788 104.727 197.239 104.727C195.69 104.727 194.435 103.471 194.435 101.922C194.435 100.373 195.69 99.1169 197.239 99.1169C198.788 99.1169 200.043 100.373 200.043 101.922Z" fill="#F8E2D3"/>
<path d="M200.043 121.558C200.043 123.108 198.788 124.364 197.239 124.364C195.69 124.364 194.435 123.108 194.435 121.558C194.435 120.009 195.69 118.753 197.239 118.753C198.788 118.753 200.043 120.009 200.043 121.558Z" fill="#F8E2D3"/>
<path d="M200.043 141.195C200.043 142.744 198.788 144 197.239 144C195.69 144 194.435 142.744 194.435 141.195C194.435 139.646 195.69 138.39 197.239 138.39C198.788 138.39 200.043 139.646 200.043 141.195Z" fill="#F8E2D3"/>
<path d="M215 2.80519C215 4.35446 213.744 5.61039 212.196 5.61039C210.647 5.61039 209.391 4.35446 209.391 2.80519C209.391 1.25593 210.647 0 212.196 0C213.744 0 215 1.25593 215 2.80519Z" fill="#F8E2D3"/>
<path d="M215 23.3766C215 24.9259 213.744 26.1818 212.196 26.1818C210.647 26.1818 209.391 24.9259 209.391 23.3766C209.391 21.8274 210.647 20.5714 212.196 20.5714C213.744 20.5714 215 21.8274 215 23.3766Z" fill="#F8E2D3"/>
<path d="M215 23.3766C215 24.9259 213.744 26.1818 212.196 26.1818C210.647 26.1818 209.391 24.9259 209.391 23.3766C209.391 21.8274 210.647 20.5714 212.196 20.5714C213.744 20.5714 215 21.8274 215 23.3766Z" fill="#F8E2D3"/>
<path d="M215 43.013C215 44.5623 213.744 45.8182 212.196 45.8182C210.647 45.8182 209.391 44.5623 209.391 43.013C209.391 41.4637 210.647 40.2078 212.196 40.2078C213.744 40.2078 215 41.4637 215 43.013Z" fill="#F8E2D3"/>
<path d="M215 62.6493C215 64.1986 213.744 65.4545 212.196 65.4545C210.647 65.4545 209.391 64.1986 209.391 62.6493C209.391 61.1001 210.647 59.8442 212.196 59.8442C213.744 59.8442 215 61.1001 215 62.6493Z" fill="#F8E2D3"/>
<path d="M215 82.2857C215 83.835 213.744 85.0909 212.196 85.0909C210.647 85.0909 209.391 83.835 209.391 82.2857C209.391 80.7364 210.647 79.4805 212.196 79.4805C213.744 79.4805 215 80.7364 215 82.2857Z" fill="#F8E2D3"/>
<path d="M215 101.922C215 103.471 213.744 104.727 212.196 104.727C210.647 104.727 209.391 103.471 209.391 101.922C209.391 100.373 210.647 99.1169 212.196 99.1169C213.744 99.1169 215 100.373 215 101.922Z" fill="#F8E2D3"/>
<path d="M215 121.558C215 123.108 213.744 124.364 212.196 124.364C210.647 124.364 209.391 123.108 209.391 121.558C209.391 120.009 210.647 118.753 212.196 118.753C213.744 118.753 215 120.009 215 121.558Z" fill="#F8E2D3"/>
<path d="M215 141.195C215 142.744 213.744 144 212.196 144C210.647 144 209.391 142.744 209.391 141.195C209.391 139.646 210.647 138.39 212.196 138.39C213.744 138.39 215 139.646 215 141.195Z" fill="#F8E2D3"/>
</svg>
