<svg width="61" height="61" viewBox="0 0 61 61" fill="none" xmlns="http://www.w3.org/2000/svg">
<path d="M45.9408 3.9502L56.5472 15.0064V57.0507H16.9258V57.188H56.6825V15.1456L45.9408 3.9502Z" fill="#909090"/>
<path d="M45.8079 3.8125H16.7891V57.0502H56.5458V15.0079L45.806 3.8125" fill="#F4F4F4"/>
<path d="M16.4973 6.67188H4.31641V19.6858H42.632V6.67188H16.4973Z" fill="#7A7B7C"/>
<path d="M42.8362 19.4647H4.56445V6.44116H42.8362V19.4647Z" fill="#DD2025"/>
<path d="M17.2551 8.64185H14.7637V17.7918H16.7233V14.7056L17.156 14.7304C17.5765 14.7232 17.993 14.6479 18.3894 14.5074C18.7369 14.3879 19.0566 14.1991 19.3291 13.9527C19.6065 13.7178 19.8252 13.4215 19.9677 13.0872C20.1589 12.5315 20.2272 11.941 20.1679 11.3563C20.156 10.9387 20.0828 10.5251 19.9506 10.1287C19.8302 9.84261 19.6517 9.58468 19.4262 9.37135C19.2007 9.15803 18.9333 8.99398 18.641 8.88966C18.3882 8.79816 18.1271 8.73175 17.8613 8.69141C17.6601 8.66036 17.4569 8.64379 17.2532 8.64185H17.2551ZM16.893 13.0148H16.7233V10.1935H17.0912C17.2536 10.1818 17.4165 10.2068 17.568 10.2665C17.7194 10.3262 17.8555 10.4192 17.9662 10.5386C18.1955 10.8455 18.3181 11.2191 18.315 11.6023C18.315 12.0712 18.315 12.4963 17.8918 12.7956C17.587 12.9632 17.2399 13.0387 16.893 13.0129" fill="#464648"/>
<path d="M23.8916 8.61907C23.68 8.61907 23.4741 8.63432 23.3292 8.64004L22.8755 8.65148H21.3887V17.8015H23.1386C23.8074 17.8198 24.4732 17.7065 25.0982 17.4679C25.6013 17.2683 26.0468 16.9467 26.3945 16.5319C26.7326 16.1134 26.9752 15.6261 27.1055 15.1041C27.2553 14.5129 27.3283 13.9049 27.3228 13.2951C27.3598 12.5748 27.3041 11.8528 27.157 11.1468C27.0174 10.627 26.756 10.1481 26.3945 9.74948C26.1108 9.42763 25.7636 9.16802 25.3746 8.98698C25.0406 8.83241 24.6893 8.71849 24.3281 8.64767C24.1845 8.62394 24.039 8.6131 23.8935 8.61526L23.8916 8.61907ZM23.5465 16.1202H23.3559V10.2794H23.3807C23.7737 10.2342 24.1713 10.3051 24.5245 10.4834C24.7831 10.6899 24.9938 10.95 25.1421 11.2459C25.3021 11.5572 25.3944 11.899 25.4128 12.2486C25.4299 12.6679 25.4128 13.0111 25.4128 13.2951C25.4205 13.6223 25.3995 13.9495 25.3499 14.273C25.2911 14.6051 25.1825 14.9265 25.0277 15.2261C24.8525 15.5047 24.6158 15.7395 24.3357 15.9124C24.1005 16.0645 23.822 16.1355 23.5427 16.1144" fill="#464648"/>
<path d="M33.2259 8.64941H28.5938V17.7994H30.5534V14.1699H33.0315V12.4695H30.5534V10.3498H33.2221V8.64941" fill="#464648"/>
<path d="M41.5188 38.6115C41.5188 38.6115 47.596 37.5097 47.596 39.5856C47.596 41.6615 43.8311 40.817 41.5188 38.6115ZM37.0258 38.7697C36.0603 38.9831 35.1193 39.2954 34.2179 39.7019L34.9804 37.9862C35.7429 36.2706 36.534 33.9317 36.534 33.9317C37.4439 35.463 38.5025 36.9009 39.6945 38.2245C38.7956 38.3586 37.9047 38.5419 37.0258 38.7735V38.7697ZM34.6201 26.3791C34.6201 24.5701 35.2053 24.0763 35.6609 24.0763C36.1165 24.0763 36.6293 24.2956 36.6465 25.8663C36.498 27.4458 36.1673 29.0027 35.6609 30.5061C34.9673 29.2439 34.6083 27.8251 34.6182 26.3848L34.6201 26.3791ZM25.758 46.4252C23.8936 45.3101 29.6677 41.8769 30.7142 41.7663C30.7085 41.7682 27.71 47.5918 25.758 46.4252ZM49.3707 39.8315C49.3516 39.6409 49.18 37.5307 45.4247 37.6202C43.8595 37.595 42.2949 37.7054 40.7487 37.95C39.2509 36.441 37.9611 34.739 36.9133 32.8889C37.5734 30.9816 37.9729 28.9938 38.1009 26.9796C38.0456 24.6921 37.4986 23.3806 35.7448 23.3996C33.9911 23.4187 33.7356 24.9532 33.9663 27.2369C34.1922 28.7715 34.6184 30.2699 35.2339 31.6937C35.2339 31.6937 34.4238 34.2157 33.3525 36.7243C32.2811 39.2329 31.5491 40.5482 31.5491 40.5482C29.6862 41.1547 27.9325 42.0557 26.3546 43.217C24.7839 44.6791 24.1453 45.8019 24.9726 46.9247C25.6855 47.893 28.1808 48.1122 30.4111 45.19C31.5961 43.6806 32.6788 42.0936 33.6517 40.4396C33.6517 40.4396 37.0525 39.5074 38.1105 39.252C39.1684 38.9966 40.4475 38.7945 40.4475 38.7945C40.4475 38.7945 43.5528 41.9188 46.5475 41.8083C49.5422 41.6977 49.3974 40.0183 49.3783 39.8353" fill="#DD2025"/>
<path d="M45.6621 3.95825V15.1537H56.4L45.6621 3.95825Z" fill="#909090"/>
<path d="M45.8086 3.8125V15.0079H56.5465L45.8086 3.8125Z" fill="#F4F4F4"/>
<path d="M17.1087 8.49609H14.6172V17.6461H16.5844V14.5618L17.0191 14.5866C17.4395 14.5793 17.856 14.504 18.2524 14.3635C18.5999 14.244 18.9196 14.0553 19.1922 13.8088C19.4675 13.5734 19.6841 13.2771 19.8251 12.9434C20.0163 12.3877 20.0845 11.7971 20.0252 11.2125C20.0133 10.7949 19.9401 10.3812 19.8079 9.98488C19.6876 9.69876 19.509 9.44083 19.2835 9.22751C19.0581 9.01419 18.7906 8.85014 18.4983 8.74581C18.2444 8.65342 17.982 8.58637 17.7148 8.54566C17.5136 8.51461 17.3104 8.49804 17.1068 8.49609H17.1087ZM16.7465 12.869H16.5768V10.0478H16.9466C17.109 10.0361 17.2719 10.061 17.4234 10.1207C17.5748 10.1804 17.7109 10.2734 17.8216 10.3928C18.051 10.6997 18.1735 11.0734 18.1704 11.4565C18.1704 11.9254 18.1704 12.3505 17.7473 12.6498C17.4424 12.8175 17.0954 12.893 16.7484 12.8671" fill="white"/>
<path d="M23.7452 8.47088C23.5336 8.47088 23.3278 8.48613 23.1829 8.49185L22.7349 8.50329H21.248V17.6533H22.998C23.6667 17.6716 24.3326 17.5583 24.9576 17.3197C25.4607 17.1201 25.9062 16.7985 26.2539 16.3837C26.592 15.9652 26.8346 15.4779 26.9649 14.9559C27.1147 14.3648 27.1877 13.7567 27.1822 13.1469C27.2192 12.4266 27.1634 11.7046 27.0164 10.9986C26.8768 10.4789 26.6154 9.99987 26.2539 9.60129C25.9702 9.27944 25.623 9.01982 25.234 8.83879C24.9 8.68422 24.5486 8.5703 24.1875 8.49947C24.0439 8.47575 23.8984 8.4649 23.7529 8.46707L23.7452 8.47088ZM23.4059 15.972H23.2153V10.1312H23.2401C23.6331 10.086 24.0307 10.1569 24.3838 10.3352C24.6424 10.5417 24.8532 10.8018 25.0015 11.0977C25.1615 11.409 25.2537 11.7508 25.2721 12.1004C25.2893 12.5198 25.2721 12.8629 25.2721 13.1469C25.2799 13.4741 25.2589 13.8013 25.2092 14.1248C25.1505 14.4569 25.0419 14.7783 24.8871 15.0779C24.7119 15.3565 24.4752 15.5913 24.1951 15.7642C23.9599 15.9163 23.6814 15.9873 23.4021 15.9663" fill="white"/>
<path d="M33.0795 8.50366H28.4473V17.6537H30.4069V14.0242H32.885V12.3238H30.4069V10.204H33.0756V8.50366" fill="white"/>
</svg>
