<svg width="21" height="21" viewBox="0 0 21 21" fill="none" xmlns="http://www.w3.org/2000/svg">
<path d="M20.2065 7.63485L13.9975 6.73247L11.2219 1.10547C11.1461 0.951403 11.0214 0.826685 10.8673 0.750875C10.4809 0.560129 10.0114 0.719084 9.81821 1.10547L7.04262 6.73247L0.833592 7.63485C0.662409 7.6593 0.5059 7.74 0.386072 7.86228C0.241207 8.01117 0.16138 8.21149 0.164131 8.41921C0.166883 8.62693 0.251987 8.82506 0.400745 8.97007L4.89306 13.3499L3.83173 19.5345C3.80684 19.6783 3.82276 19.8263 3.87768 19.9616C3.93261 20.0968 4.02433 20.214 4.14247 20.2998C4.2606 20.3856 4.40041 20.4366 4.54604 20.447C4.69168 20.4574 4.83731 20.4268 4.96642 20.3586L10.5201 17.4387L16.0737 20.3586C16.2253 20.4393 16.4014 20.4662 16.5701 20.4368C16.9956 20.3635 17.2818 19.96 17.2084 19.5345L16.1471 13.3499L20.6394 8.97007C20.7617 8.85024 20.8424 8.69373 20.8668 8.52255C20.9328 8.09459 20.6345 7.69843 20.2065 7.63485Z" fill="#4080FF"/>
</svg>
