<svg width="53" height="53" viewBox="0 0 53 53" fill="none" xmlns="http://www.w3.org/2000/svg">
<path d="M26.5 0.25C11.9837 0.25 0.25 11.9837 0.25 26.5C0.25 41.0163 11.9837 52.75 26.5 52.75C41.0163 52.75 52.75 41.0163 52.75 26.5C52.75 11.9837 41.0163 0.25 26.5 0.25ZM37.7875 37.7875C37.5447 38.0308 37.2562 38.2239 36.9386 38.3556C36.6211 38.4874 36.2807 38.5552 35.9369 38.5552C35.5931 38.5552 35.2527 38.4874 34.9351 38.3556C34.6176 38.2239 34.3291 38.0308 34.0863 37.7875L26.5 30.2013L18.9137 37.7875C18.4229 38.2783 17.7572 38.5541 17.0631 38.5541C16.369 38.5541 15.7033 38.2783 15.2125 37.7875C14.7217 37.2967 14.4459 36.631 14.4459 35.9369C14.4459 35.5932 14.5136 35.2529 14.6452 34.9353C14.7767 34.6178 14.9695 34.3293 15.2125 34.0863L22.7987 26.5L15.2125 18.9137C14.7217 18.4229 14.4459 17.7572 14.4459 17.0631C14.4459 16.369 14.7217 15.7033 15.2125 15.2125C15.7033 14.7217 16.369 14.4459 17.0631 14.4459C17.7572 14.4459 18.4229 14.7217 18.9137 15.2125L26.5 22.7987L34.0863 15.2125C34.3293 14.9695 34.6178 14.7767 34.9353 14.6452C35.2529 14.5136 35.5932 14.4459 35.9369 14.4459C36.2806 14.4459 36.6209 14.5136 36.9384 14.6452C37.256 14.7767 37.5445 14.9695 37.7875 15.2125C38.0305 15.4555 38.2233 15.744 38.3548 16.0616C38.4864 16.3791 38.5541 16.7194 38.5541 17.0631C38.5541 17.4068 38.4864 17.7471 38.3548 18.0647C38.2233 18.3822 38.0305 18.6707 37.7875 18.9137L30.2013 26.5L37.7875 34.0863C38.785 35.0838 38.785 36.7637 37.7875 37.7875Z" fill="#F05050"/>
</svg>
