<svg width="24" height="15" viewBox="0 0 24 15" fill="none" xmlns="http://www.w3.org/2000/svg">
<path d="M11.9999 0.834961L11.7652 0.906211L2.39017 4.04721L0.258667 4.74996L1.49992 5.14746V11.71C1.05217 11.9702 0.749917 12.445 0.749917 13C0.749917 13.3978 0.907952 13.7793 1.18926 14.0606C1.47056 14.3419 1.85209 14.5 2.24992 14.5C2.64774 14.5 3.02927 14.3419 3.31058 14.0606C3.59188 13.7793 3.74992 13.3978 3.74992 13C3.74992 12.445 3.44767 11.9702 2.99992 11.71V5.66496L4.49992 6.15621V9.99996C4.49992 10.615 4.87492 11.125 5.32042 11.4775C5.76592 11.8277 6.31942 12.0752 6.98392 12.2972C8.31442 12.7397 10.0679 13 11.9999 13C13.9319 13 15.6854 12.7405 17.0159 12.2965C17.6804 12.0752 18.2339 11.8277 18.6794 11.4767C19.1249 11.125 19.4999 10.615 19.4999 9.99996V6.15621L21.6097 5.45271L23.7412 4.74996L21.6089 4.04646L12.2339 0.906211L11.9999 0.834961ZM11.9999 2.40621L19.0312 4.74996L11.9999 7.09371L4.96867 4.74996L11.9999 2.40621ZM5.99992 6.67221L11.7659 8.59371L11.9999 8.66421L12.2347 8.59296L17.9999 6.67146V9.99996C17.9999 10.0075 18.0029 10.0945 17.7652 10.2812C17.5282 10.4687 17.1029 10.705 16.5464 10.891C15.4349 11.2607 13.7962 11.5 11.9999 11.5C10.2037 11.5 8.56492 11.2615 7.45267 10.8902C6.89767 10.705 6.47167 10.468 6.23467 10.2812C5.99617 10.0937 5.99992 10.0075 5.99992 9.99996V6.67146V6.67221Z" fill="black"/>
</svg>
