<svg width="22" height="22" viewBox="0 0 22 22" fill="none" xmlns="http://www.w3.org/2000/svg">
<path d="M10.0996 2.42408C10.3942 1.64705 11.5091 1.64705 11.8046 2.42408L13.7103 7.70305C13.8438 8.05289 14.1835 8.28582 14.5628 8.28582H19.2462C20.1116 8.28582 20.489 9.36297 19.8087 9.8905L16.4759 12.889C16.3267 13.0038 16.2176 13.1629 16.1643 13.3435C16.111 13.5241 16.1164 13.717 16.1795 13.8944L17.3966 19.0527C17.693 19.8813 16.7337 20.593 16.0083 20.0829L11.4814 17.2105C11.3264 17.1016 11.1416 17.0431 10.9521 17.0431C10.7626 17.0431 10.5777 17.1016 10.4227 17.2105L5.8959 20.0829C5.17135 20.593 4.21112 19.8804 4.50757 19.0527L5.72466 13.8944C5.7878 13.717 5.79312 13.5241 5.73986 13.3435C5.6866 13.1629 5.5775 13.0038 5.42821 12.889L2.09548 9.8905C1.41421 9.36297 1.79351 8.28582 2.65707 8.28582H7.34039C7.52479 8.28643 7.70503 8.23104 7.85726 8.12698C8.00949 8.02292 8.12653 7.87509 8.19291 7.70305L10.0986 2.42408H10.0996Z" stroke="#4080FF" stroke-width="3.32553" stroke-linecap="round" stroke-linejoin="round"/>
</svg>
