<svg width="40" height="14" viewBox="0 0 40 14" fill="none" xmlns="http://www.w3.org/2000/svg">
<path d="M37.0367 13.2799L36.6617 11.4049H32.4717L31.805 13.2665L28.4467 13.2732C30.0455 9.42844 31.6477 5.5851 33.2533 1.7432C33.5267 1.09154 34.0117 0.759871 34.7267 0.763204C35.2733 0.768204 36.165 0.768203 37.4033 0.76487L40 13.2749L37.0367 13.2799ZM33.415 8.83654H36.115L35.1067 4.13654L33.415 8.83654ZM11.7667 0.761537L15.1433 0.76487L9.92333 13.2815L6.505 13.2782C5.64541 9.97207 4.79652 6.66316 3.95833 3.35154C3.79167 2.69154 3.46167 2.22987 2.82667 2.01154C1.88871 1.69724 0.946393 1.3961 0 1.1082L0 0.766537H5.395C6.32833 0.766537 6.87333 1.2182 7.04833 2.14487C7.225 3.0732 7.66833 5.43654 8.38167 9.23487L11.7667 0.761537ZM19.7833 0.76487L17.1133 13.2782L13.9 13.2749L16.5667 0.761537L19.7833 0.76487ZM26.3 0.533203C27.2617 0.533203 28.4733 0.833204 29.17 1.1082L28.6067 3.7032C27.9767 3.44987 26.94 3.1082 26.0683 3.11987C24.8017 3.14154 24.0183 3.6732 24.0183 4.1832C24.0183 5.0132 25.3783 5.43154 26.7783 6.3382C28.3767 7.37154 28.5867 8.29987 28.5667 9.3082C28.545 11.4015 26.7783 13.4665 23.0517 13.4665C21.3517 13.4415 20.7383 13.2982 19.3517 12.8065L19.9383 10.0982C21.35 10.6899 21.9483 10.8782 23.155 10.8782C24.26 10.8782 25.2083 10.4315 25.2167 9.6532C25.2233 9.09987 24.8833 8.82487 23.6433 8.14154C22.4033 7.45654 20.6633 6.5082 20.6867 4.60487C20.715 2.1682 23.0233 0.533203 26.3017 0.533203H26.3Z" fill="white"/>
</svg>
